<?xml version="1.0" encoding="UTF-8"?>
<svg version="1.1" xmlns="http://www.w3.org/2000/svg" width="48" height="48">
<path d="M0 0 C15.84 0 31.68 0 48 0 C48 15.84 48 31.68 48 48 C32.16 48 16.32 48 0 48 C0 32.16 0 16.32 0 0 Z " fill="#bd9f5e" transform="translate(0,0)"/>
<path d="M0 0 C0 15.84 0 31.68 0 48 C-4.93 47.01 -6.22 46.38 -9.88 43.31 C-10.74 42.6 -11.6 41.88 -12.48 41.14 C-13.73 40.08 -13.73 40.08 -15 39 C-15.73 38.39 -16.45 37.77 -17.2 37.14 C-18.81 35.77 -20.41 34.39 -22 33 C-21.67 32.34 -21.34 31.68 -21 31 C-18.04 31.61 -16.62 32.25 -14 34 C-14 34.66 -14 35.32 -14 36 C-11.35 35.08 -11.35 35.08 -9 33 C-8.53 30.21 -8.77 27.86 -9 25 C-10.32 25 -11.64 25 -13 25 C-13.33 25.99 -13.66 26.98 -14 28 C-15.5 26.69 -15.5 26.69 -17 25 C-17 24.01 -17 23.02 -17 22 C-17.99 21.34 -18.98 20.68 -20 20 C-18.68 20 -17.36 20 -16 20 C-16 19.34 -16 18.68 -16 18 C-15.01 17.67 -14.02 17.34 -13 17 C-13.66 15.68 -14.32 14.36 -15 13 C-15 14.32 -15 15.64 -15 17 C-19.88 16.13 -19.88 16.13 -21 15 C-22.32 15 -23.64 15 -25 15 C-17.73 4.4 -13.94 0 0 0 Z " fill="#919191" transform="translate(48,0)"/>
<path d="M0 0 C2.5 1.81 2.5 1.81 5 4 C5 4.99 5 5.98 5 7 C5.99 7.66 6.98 8.32 8 9 C9.01 5.95 9.01 5.95 8 3 C8.66 3 9.32 3 10 3 C10 2.34 10 1.68 10 1 C18.36 2.42 23.2 8.2 29 14 C16.46 14 3.92 14 -9 14 C-8.67 12.68 -8.34 11.36 -8 10 C-7.01 9.67 -6.02 9.34 -5 9 C-5 8.01 -5 7.02 -5 6 C-4.01 5.67 -3.02 5.34 -2 5 C-2 4.34 -2 3.68 -2 3 C-1.34 3 -0.68 3 0 3 C0 2.01 0 1.02 0 0 Z " fill="#B8B8B8" transform="translate(15,34)"/>
<path d="M0 0 C9.57 0 19.14 0 29 0 C28.01 0.49 28.01 0.49 27 1 C26.67 1.66 26.34 2.32 26 3 C25.01 3.33 24.02 3.66 23 4 C21.29 7.32 21 9.18 21 13 C18.03 11.88 15.67 10.78 13 9 C14.15 11.47 15.05 13.05 17 15 C16.01 15.33 15.02 15.66 14 16 C13.67 15.01 13.34 14.02 13 13 C12.34 13 11.68 13 11 13 C11 13.66 11 14.32 11 15 C10.34 15 9.68 15 9 15 C9 14.34 9 13.68 9 13 C7.61 13.06 7.61 13.06 6.19 13.12 C3 13 3 13 0 11 C0 7.37 0 3.74 0 0 Z " fill="#D2D2D2" transform="translate(0,0)"/>
<path d="M0 0 C0.66 0.33 1.32 0.66 2 1 C2 1.99 2 2.98 2 4 C2.33 2.68 2.66 1.36 3 0 C4.32 0.33 5.64 0.66 7 1 C6.34 3.64 5.68 6.28 5 9 C5.99 8.34 6.98 7.68 8 7 C8 17.23 8 27.46 8 38 C4 35 4 35 3.24 32.12 C3.12 31.05 3 29.98 2.88 28.88 C2.64 26.91 2.37 24.95 2 23 C1.34 22.67 0.68 22.34 0 22 C0 21.34 0 20.68 0 20 C-1.65 20.33 -3.3 20.66 -5 21 C-4.36 20.75 -3.72 20.5 -3.06 20.25 C-0.81 19.18 -0.81 19.18 -0.25 16.88 C-0.17 16.26 -0.09 15.64 0 15 C1.32 15 2.64 15 4 15 C4 13.68 4 12.36 4 11 C3.34 10.67 2.68 10.34 2 10 C1.67 10.99 1.34 11.98 1 13 C-1.48 12.01 -1.48 12.01 -4 11 C-4 10.34 -4 9.68 -4 9 C-4.66 9 -5.32 9 -6 9 C-6.33 8.34 -6.66 7.68 -7 7 C-6.67 6.01 -6.34 5.02 -6 4 C-2.94 2.81 -2.94 2.81 0 2 C0 1.34 0 0.68 0 0 Z " fill="#27c6ef" transform="translate(40,1)"/>
<path d="M0 0 C-0.68 0.66 -1.36 1.32 -2.06 2 C-8.47 8.46 -13.55 15.04 -18 23 C-19.32 22.67 -20.64 22.34 -22 22 C-21.01 21.67 -20.02 21.34 -19 21 C-19 20.34 -19 19.68 -19 19 C-19.7 19.27 -20.4 19.54 -21.12 19.81 C-24.41 20.03 -24.86 19.68 -27.31 17.69 C-28.2 16.8 -29.09 15.91 -30 15 C-30 14.34 -30 13.68 -30 13 C-28.68 13 -27.36 13 -26 13 C-26 13.66 -26 14.32 -26 15 C-25.34 15 -24.68 15 -24 15 C-24 14.34 -24 13.68 -24 13 C-23.34 13 -22.68 13 -22 13 C-21.34 13.66 -20.68 14.32 -20 15 C-20.66 13.02 -21.32 11.04 -22 9 C-21.42 9.31 -20.84 9.62 -20.25 9.94 C-18.16 10.93 -16.25 11.52 -14 12 C-14.27 11.28 -14.54 10.56 -14.81 9.81 C-15 7 -15 7 -12.81 4.31 C-8.29 0.6 -5.9 -0.27 0 0 Z " fill="#929292" transform="translate(35,0)"/>
<path d="M0 0 C1.28 0.91 2.55 1.83 3.81 2.75 C4.87 3.52 4.87 3.52 5.96 4.3 C8.03 6.02 9.47 7.79 11 10 C10.34 11.32 9.68 12.64 9 14 C7.68 13.34 6.36 12.68 5 12 C5 11.01 5 10.02 5 9 C3.56 7.31 3.56 7.31 2 6 C1.01 6.33 0.02 6.66 -1 7 C-0.67 8.32 -0.34 9.64 0 11 C-1.32 11.33 -2.64 11.66 -4 12 C-3.67 12.66 -3.34 13.32 -3 14 C-4.32 14 -5.64 14 -7 14 C-7.33 15.32 -7.66 16.64 -8 18 C-9.65 18 -11.3 18 -13 18 C-8.96 11.75 -4.65 5.81 0 0 Z " fill="#919191" transform="translate(14,30)"/>
<path d="M0 0 C3.6 3.5 6.81 7.13 10 11 C8.19 13.5 6.38 16 4.56 18.5 C4.05 19.22 3.53 19.93 3 20.67 C2.5 21.34 2.01 22.02 1.5 22.72 C1.05 23.35 0.59 23.98 0.12 24.62 C-0.43 25.3 -0.43 25.3 -1 26 C-1.33 26 -1.66 26 -2 26 C-2 21.38 -2 16.76 -2 12 C-1.01 12.33 -0.02 12.66 1 13 C1.33 12.34 1.66 11.68 2 11 C2 11.66 2 12.32 2 13 C3.32 13 4.64 13 6 13 C5.04 10.92 5.04 10.92 3.44 9 C2 7 2 7 2 5 C1.34 5 0.68 5 0 5 C0 3.35 0 1.7 0 0 Z " fill="#929292" transform="translate(2,18)"/>
<path d="M0 0 C0 1.65 0 3.3 0 5 C0.66 4.01 1.32 3.02 2 2 C2.66 2.33 3.32 2.66 4 3 C4.33 2.34 4.66 1.68 5 1 C6.32 1 7.64 1 9 1 C10.41 3.83 10.32 5.87 10 9 C8.12 10.88 8.12 10.88 6 12 C5.34 12 4.68 12 4 12 C3.4 11.34 2.8 10.68 2.19 10 C0.15 7.73 0.15 7.73 -2.75 7.75 C-3.49 7.83 -4.23 7.91 -5 8 C-6.06 6.12 -6.06 6.12 -7 4 C-5.34 0.68 -3.61 0 0 0 Z " fill="#E6E6E6" transform="translate(30,24)"/>
<path d="M0 0 C2.5 1.81 2.5 1.81 5 4 C5 4.99 5 5.98 5 7 C5.95 9.15 5.95 9.15 7 11 C5.68 10.67 4.36 10.34 3 10 C2.67 11.32 2.34 12.64 2 14 C-1.63 14 -5.26 14 -9 14 C-8.67 12.68 -8.34 11.36 -8 10 C-7.01 9.67 -6.02 9.34 -5 9 C-5 8.01 -5 7.02 -5 6 C-4.01 5.67 -3.02 5.34 -2 5 C-2 4.34 -2 3.68 -2 3 C-1.34 3 -0.68 3 0 3 C0 2.01 0 1.02 0 0 Z " fill="#BCBCBC" transform="translate(15,34)"/>
<path d="M0 0 C5.04 1.75 6.83 3.84 10 8 C5.25 9.12 5.25 9.12 3 8 C2.67 9.32 2.34 10.64 2 12 C2.66 12 3.32 12 4 12 C5.02 13.66 6.02 15.32 7 17 C7.66 17.33 8.32 17.66 9 18 C8.67 18.66 8.34 19.32 8 20 C5.67 20.04 3.33 20.04 1 20 C0 19 0 19 -0.11 17.14 C-0.11 16.35 -0.1 15.56 -0.1 14.75 C-0.09 13.89 -0.09 13.04 -0.09 12.16 C-0.08 11.26 -0.07 10.36 -0.06 9.44 C-0.06 8.54 -0.05 7.63 -0.05 6.71 C-0.04 4.47 -0.02 2.24 0 0 Z " fill="#27c6ef" transform="translate(0,11)"/>
<path d="M0 0 C1.09 0.03 2.17 0.05 3.29 0.08 C4.54 0.13 4.54 0.13 5.81 0.19 C4.82 0.68 4.82 0.68 3.81 1.19 C3.48 1.85 3.15 2.51 2.81 3.19 C1.82 3.52 0.83 3.85 -0.19 4.19 C-1.89 7.51 -2.19 9.37 -2.19 13.19 C-5.84 11.94 -6.97 11.52 -9.19 8.19 C-9.53 5.42 -9.66 3.87 -8.05 1.54 C-5.36 -0.42 -3.29 -0.11 0 0 Z " fill="#DCDCDC" transform="translate(23.1875,-0.1875)"/>
<path d="M0 0 C0.66 0.33 1.32 0.66 2 1 C2 1.99 2 2.98 2 4 C2.33 2.68 2.66 1.36 3 0 C4.32 0.33 5.64 0.66 7 1 C6 4 6 4 4 5.88 C1.73 8.29 1.36 9.76 1 13 C-1.48 12.01 -1.48 12.01 -4 11 C-4 10.34 -4 9.68 -4 9 C-4.66 9 -5.32 9 -6 9 C-6.33 8.34 -6.66 7.68 -7 7 C-6.67 6.01 -6.34 5.02 -6 4 C-2.94 2.81 -2.94 2.81 0 2 C0 1.34 0 0.68 0 0 Z " fill="#BFBFBF" transform="translate(40,1)"/>
<path d="M0 0 C2.96 0.61 4.38 1.25 7 3 C7 3.66 7 4.32 7 5 C8.98 5 10.96 5 13 5 C13.66 7.31 14.32 9.62 15 12 C10.07 12 8.98 10.78 5.25 7.69 C4.27 6.89 3.28 6.09 2.27 5.26 C1.52 4.52 0.77 3.77 0 3 C0 2.01 0 1.02 0 0 Z " fill="#8E8E8E" transform="translate(27,31)"/>
<path d="M0 0 C3.66 1.57 4.94 2.94 8 6 C1.73 6 -4.54 6 -11 6 C-11 5.34 -11 4.68 -11 4 C-8.09 3.19 -6.54 2.78 -3.69 3.94 C-3.13 4.29 -2.57 4.64 -2 5 C-1.34 3.35 -0.68 1.7 0 0 Z " fill="#D6D6D6" transform="translate(36,42)"/>
<path d="M0 0 C3.88 1.75 3.88 1.75 5 4 C6.32 3.67 7.64 3.34 9 3 C8.67 4.32 8.34 5.64 8 7 C4.37 7 0.74 7 -3 7 C-2.67 5.68 -2.34 4.36 -2 3 C-1.01 2.67 -0.02 2.34 1 2 C0.67 1.34 0.34 0.68 0 0 Z " fill="#E7E7E7" transform="translate(9,41)"/>
<path d="M0 0 C0.99 0 1.98 0 3 0 C4.38 1.63 5.71 3.3 7 5 C7.66 5.33 8.32 5.66 9 6 C8.67 6.66 8.34 7.32 8 8 C5.67 8.04 3.33 8.04 1 8 C0 7 0 7 -0.06 3.44 C-0.04 2.3 -0.02 1.17 0 0 Z " fill="#A7A7A7" transform="translate(0,23)"/>
<path d="M0 0 C1 2 2 4 3 6 C1.68 6 0.36 6 -1 6 C-1 6.66 -1 7.32 -1 8 C-2.65 8 -4.3 8 -6 8 C-6.66 6.68 -7.32 5.36 -8 4 C-7.34 3.01 -6.68 2.02 -6 1 C-5.34 1.33 -4.68 1.66 -4 2 C-4.33 2.66 -4.66 3.32 -5 4 C-3.35 4.33 -1.7 4.66 0 5 C-0.28 4.04 -0.28 4.04 -0.56 3.06 C-0.71 2.38 -0.85 1.7 -1 1 C-0.67 0.67 -0.34 0.34 0 0 Z " fill="#D8D8D8" transform="translate(33,12)"/>
<path d="M0 0 C2.97 0.99 5.94 1.98 9 3 C8.01 3.5 8.01 3.5 7 4 C7.21 4.58 7.41 5.16 7.62 5.75 C8.09 8.52 7.43 9.65 6 12 C5 9 5 9 6 6 C5.34 6 4.68 6 4 6 C4 5.34 4 4.68 4 4 C2.02 4 0.04 4 -2 4 C-1.34 2.68 -0.68 1.36 0 0 Z " fill="#B0B0B0" transform="translate(24,18)"/>
<path d="M0 0 C0.89 2.67 1.48 5.24 2 8 C1.01 8.33 0.02 8.66 -1 9 C-3.19 7.56 -3.19 7.56 -5 6 C-3.63 2.84 -3.01 2.01 0 0 Z " fill="#EEEEEE" transform="translate(20,4)"/>
<path d="M0 0 C0.27 0.58 0.54 1.15 0.81 1.75 C2.02 4.03 3.41 5.97 5 8 C4.01 8.33 3.02 8.66 2 9 C-0 7 -2 5 -4 3 C-2.68 2.01 -1.36 1.02 0 0 Z " fill="#E3E3E3" transform="translate(12,7)"/>
<path d="M0 0 C1.98 0.49 1.98 0.49 4 1 C3.67 2.32 3.34 3.64 3 5 C3.66 5.33 4.32 5.66 5 6 C5 6.66 5 7.32 5 8 C2.56 7.19 2.56 7.19 0 6 C-1 3 -1 3 0 0 Z " fill="#E2E2E2" transform="translate(17,37)"/>
<path d="M0 0 C1.98 0.99 3.96 1.98 6 3 C5.67 3.66 5.34 4.32 5 5 C2.93 5.41 2.93 5.41 0.44 5.62 C-0.39 5.7 -1.22 5.77 -2.07 5.85 C-3.02 5.93 -3.02 5.93 -4 6 C-2.68 5.34 -1.36 4.68 0 4 C0 2.68 0 1.36 0 0 Z " fill="#BDBDBD" transform="translate(39,16)"/>
<path d="M0 0 C1.32 0 2.64 0 4 0 C3.12 4.75 3.12 4.75 2 7 C1.34 7 0.68 7 0 7 C0 4.69 0 2.38 0 0 Z " fill="#EEEEEE" transform="translate(0,0)"/>
<path d="M0 0 C0.66 0 1.32 0 2 0 C2 0.66 2 1.32 2 2 C2.99 1.67 3.98 1.34 5 1 C5 1.99 5 2.98 5 4 C3.19 5.06 3.19 5.06 1 6 C0.01 5.67 -0.98 5.34 -2 5 C-1.34 3.35 -0.68 1.7 0 0 Z " fill="#919191" transform="translate(4,0)"/>
<path d="M0 0 C0.33 0.99 0.66 1.98 1 3 C1.99 3 2.98 3 4 3 C4 3.66 4 4.32 4 5 C3.34 5 2.68 5 2 5 C2.33 7.31 2.66 9.62 3 12 C2.34 12 1.68 12 1 12 C0.67 8.04 0.34 4.08 0 0 Z " fill="#CACACA" transform="translate(43,23)"/>
<path d="M0 0 C0.66 0.33 1.32 0.66 2 1 C1.67 2.65 1.34 4.3 1 6 C-0.65 6.33 -2.3 6.66 -4 7 C-3.34 5.35 -2.68 3.7 -2 2 C-1.34 2 -0.68 2 0 2 C0 1.34 0 0.68 0 0 Z " fill="#D6D6D6" transform="translate(40,1)"/>
<path d="M0 0 C1.32 0.33 2.64 0.66 4 1 C2.77 4.69 1.06 5.72 -2 8 C-1.34 5.36 -0.68 2.72 0 0 Z " fill="#D1D1D1" transform="translate(43,1)"/>
<path d="M0 0 C0.66 0 1.32 0 2 0 C2.33 2.64 2.66 5.28 3 8 C2.34 8 1.68 8 1 8 C0.67 5.36 0.34 2.72 0 0 Z " fill="#C6C6C6" transform="translate(45,40)"/>
<path d="M0 0 C0.99 0.33 1.98 0.66 3 1 C1.68 3.31 0.36 5.62 -1 8 C-1.33 8 -1.66 8 -2 8 C-2.12 5.62 -2.12 5.62 -2 3 C-1.34 2.34 -0.68 1.68 0 1 C0 0.67 0 0.34 0 0 Z " fill="#8C8C8C" transform="translate(2,36)"/>
<path d="M0 0 C0.33 0 0.66 0 1 0 C1 2.31 1 4.62 1 7 C-0.65 7.33 -2.3 7.66 -4 8 C-3.67 7.01 -3.34 6.02 -3 5 C-2.34 4.67 -1.68 4.34 -1 4 C-0.35 1.98 -0.35 1.98 0 0 Z " fill="#B4B4B4" transform="translate(40,29)"/>
<path d="M0 0 C0.33 0 0.66 0 1 0 C1 2.64 1 5.28 1 8 C0.01 8 -0.98 8 -2 8 C-1.48 5.24 -0.89 2.67 0 0 Z " fill="#8A8A8A" transform="translate(47,18)"/>
</svg>
