<?xml version="1.0" encoding="UTF-8"?>
<svg version="1.1" xmlns="http://www.w3.org/2000/svg" width="48" height="48">
<path d="M0 0 C15.84 0 31.68 0 48 0 C48 15.84 48 31.68 48 48 C32.16 48 16.32 48 0 48 C0 32.16 0 16.32 0 0 Z " fill="#C7BEBA" transform="translate(0,0)"/>
<path d="M0 0 C0.51 6 -0.6 10.93 -4 16 C-6.75 17.06 -6.75 17.06 -9 17 C-9 17.99 -9 18.98 -9 20 C-12.12 20.84 -15.25 21.67 -18.38 22.5 C-19.26 22.74 -20.15 22.98 -21.07 23.22 C-21.92 23.45 -22.77 23.67 -23.65 23.91 C-24.43 24.12 -25.22 24.33 -26.03 24.54 C-28 25 -28 25 -30 25 C-29.34 21.28 -27.69 18.56 -25.69 15.38 C-25.09 14.41 -24.5 13.45 -23.89 12.46 C-21.99 9.98 -20.8 9.2 -18 8 C-17.69 7.38 -17.38 6.76 -17.06 6.12 C-13.39 -1.22 -7.2 -0.45 0 0 Z " fill="#E0816F" transform="translate(48,0)"/>
<path d="M0 0 C9.57 0 19.14 0 29 0 C28.01 0.49 28.01 0.49 27 1 C26.67 1.66 26.34 2.32 26 3 C25.01 3.33 24.02 3.66 23 4 C21.29 7.32 21 9.18 21 13 C18.03 11.88 15.67 10.78 13 9 C14.15 11.47 15.05 13.05 17 15 C16.01 15.33 15.02 15.66 14 16 C13.34 15.01 12.68 14.02 12 13 C11.67 13.66 11.34 14.32 11 15 C10.34 15 9.68 15 9 15 C9 14.01 9 13.02 9 12 C7.33 12.28 7.33 12.28 5.62 12.56 C2 13 2 13 0 12 C0 8.04 0 4.08 0 0 Z " fill="#A7E6F1" transform="translate(0,0)"/>
<path d="M0 0 C0.66 0.33 1.32 0.66 2 1 C2.82 4.03 2.82 4.03 3.56 7.94 C3.69 8.61 3.82 9.29 3.95 9.98 C4.94 15.29 5.63 20.61 6 26 C1.55 24.56 -1.17 22.3 -4.56 19.12 C-5.49 18.26 -6.42 17.4 -7.38 16.51 C-9.62 14.37 -11.82 12.2 -14 10 C-11 9 -11 9 -8.31 10.31 C-7.55 10.87 -6.79 11.43 -6 12 C-6 12.66 -6 13.32 -6 14 C-5.38 13.51 -4.76 13.01 -4.12 12.5 C-2 11 -2 11 0 11 C-0.33 8.36 -0.66 5.72 -1 3 C-2.32 3 -3.64 3 -5 3 C-5.33 3.99 -5.66 4.98 -6 6 C-7.5 4.62 -7.5 4.62 -9 3 C-9 2.34 -9 1.68 -9 1 C-5.77 -0.08 -3.38 -0.14 0 0 Z " fill="#EA7766" transform="translate(40,22)"/>
<path d="M0 0 C0 0.66 0 1.32 0 2 C-1.15 3.05 -2.34 4.04 -3.56 5 C-9.4 9.95 -13.73 16.09 -17 23 C-21.96 21.73 -24.76 20 -28 16 C-28 14.68 -28 13.36 -28 12 C-27.01 12 -26.02 12 -25 12 C-25 12.99 -25 13.98 -25 15 C-24.34 15 -23.68 15 -23 15 C-22.67 14.01 -22.34 13.02 -22 12 C-21.01 12.99 -20.02 13.98 -19 15 C-19.66 14.01 -20.32 13.02 -21 12 C-21 11.01 -21 10.02 -21 9 C-20.42 9.31 -19.84 9.62 -19.25 9.94 C-17.16 10.93 -15.25 11.52 -13 12 C-13.27 11.28 -13.54 10.56 -13.81 9.81 C-14 7 -14 7 -11.81 4.31 C-7.68 0.92 -5.38 -0.3 0 0 Z " fill="#E4816F" transform="translate(34,0)"/>
<path d="M0 0 C1.3 0.93 2.59 1.87 3.88 2.81 C4.59 3.33 5.31 3.86 6.05 4.39 C8 6 8 6 10 9 C8.38 11.15 6.75 13.29 5.12 15.44 C4.66 16.05 4.2 16.66 3.73 17.29 C0.23 21.89 0.23 21.89 -2 23 C-2.06 19.54 -2.09 16.08 -2.12 12.62 C-2.14 11.64 -2.16 10.66 -2.18 9.64 C-2.18 8.7 -2.19 7.76 -2.2 6.79 C-2.21 5.92 -2.22 5.05 -2.23 4.15 C-2 2 -2 2 0 0 Z " fill="#EE7A69" transform="translate(2,20)"/>
<path d="M0 0 C1.28 0.91 2.55 1.83 3.81 2.75 C4.87 3.52 4.87 3.52 5.96 4.3 C8.03 6.02 9.47 7.79 11 10 C10.01 11.32 9.02 12.64 8 14 C7.01 13.67 6.02 13.34 5 13 C5.33 11.68 5.66 10.36 6 9 C5.34 9 4.68 9 4 9 C4 8.34 4 7.68 4 7 C3.34 6.67 2.68 6.34 2 6 C1.01 6.33 0.02 6.66 -1 7 C-0.67 8.32 -0.34 9.64 0 11 C-1.32 11.33 -2.64 11.66 -4 12 C-3.67 12.66 -3.34 13.32 -3 14 C-3.64 14.1 -4.28 14.21 -4.94 14.31 C-5.96 14.65 -5.96 14.65 -7 15 C-7.33 15.99 -7.66 16.98 -8 18 C-9.65 18 -11.3 18 -13 18 C-8.96 11.75 -4.65 5.81 0 0 Z " fill="#E97C68" transform="translate(14,30)"/>
<path d="M0 0 C0.76 0.21 1.53 0.41 2.31 0.62 C2.31 1.29 2.31 1.95 2.31 2.62 C2.97 2.62 3.63 2.62 4.31 2.62 C4.64 1.96 4.97 1.3 5.31 0.62 C6.63 0.62 7.95 0.62 9.31 0.62 C11.44 5.25 11.44 5.25 10.31 8.62 C6.87 11.62 6.87 11.62 4.31 11.62 C3.92 11.17 3.53 10.72 3.12 10.25 C1.24 8.31 1.24 8.31 -2.31 7.62 C-3.98 7.13 -3.98 7.13 -5.69 6.62 C-6.02 5.63 -6.35 4.64 -6.69 3.62 C-5.08 0.41 -3.54 -0.49 0 0 Z " fill="#F5E2AF" transform="translate(29.6875,24.375)"/>
<path d="M0 0 C1.5 1.38 1.5 1.38 3 3 C3 3.66 3 4.32 3 5 C3.99 4.67 4.98 4.34 6 4 C5.34 5.65 4.68 7.3 4 9 C4.99 9 5.98 9 7 9 C6.67 10.65 6.34 12.3 6 14 C1.05 14 -3.9 14 -9 14 C-8.67 12.68 -8.34 11.36 -8 10 C-7.01 9.67 -6.02 9.34 -5 9 C-5.33 8.34 -5.66 7.68 -6 7 C-4.35 7 -2.7 7 -1 7 C-1.33 5.68 -1.66 4.36 -2 3 C-1.34 3 -0.68 3 0 3 C0 2.01 0 1.02 0 0 Z " fill="#EEB88C" transform="translate(15,34)"/>
<path d="M0 0 C5.94 0 11.88 0 18 0 C14.36 2.92 11.34 5.08 7.31 7.25 C6.36 7.77 5.41 8.29 4.43 8.83 C2 10 2 10 0 10 C0 6.7 0 3.4 0 0 Z " fill="#D7CEC4" transform="translate(0,0)"/>
<path d="M0 0 C1 0.02 2 0.05 3.02 0.07 C4.53 0.1 4.53 0.1 6.06 0.12 C6.83 0.15 7.6 0.17 8.4 0.2 C8.9 6.1 7.84 11.24 4.4 16.2 C2.26 16.95 2.26 16.95 0.4 17.2 C-0.92 15.55 -2.24 13.9 -3.6 12.2 C-1.95 12.53 -0.3 12.86 1.4 13.2 C1.5 12.45 1.6 11.71 1.71 10.95 C2.45 8.01 3.54 6.53 5.4 4.2 C5.4 3.54 5.4 2.88 5.4 2.2 C4.74 1.87 4.08 1.54 3.4 1.2 C3.07 3.18 2.74 5.16 2.4 7.2 C2.07 7.2 1.74 7.2 1.4 7.2 C1.4 5.55 1.4 3.9 1.4 2.2 C1.07 2.53 0.74 2.86 0.4 3.2 C-0.26 3.2 -0.92 3.2 -1.6 3.2 C-1.93 3.86 -2.26 4.52 -2.6 5.2 C-3.26 4.21 -3.92 3.22 -4.6 2.2 C-2.6 0.2 -2.6 0.2 0 0 Z " fill="#E77B6B" transform="translate(39.6015625,-0.1953125)"/>
<path d="M0 0 C2.71 0.15 4.47 0.48 6.45 2.4 C7.68 3.9 8.84 5.45 10 7 C9.01 7.33 8.02 7.66 7 8 C6.34 7.67 5.68 7.34 5 7 C5.33 8.32 5.66 9.64 6 11 C5.38 10.65 4.76 10.3 4.12 9.94 C3.42 9.63 2.72 9.32 2 9 C1.01 9.5 1.01 9.5 0 10 C0 6.7 0 3.4 0 0 Z " fill="#B5B3B3" transform="translate(0,12)"/>
<path d="M0 0 C-0.99 0.49 -0.99 0.49 -2 1 C-2.33 1.66 -2.66 2.32 -3 3 C-3.99 3.33 -4.98 3.66 -6 4 C-7.71 7.32 -8 9.18 -8 13 C-11.65 11.75 -12.78 11.33 -15 8 C-13.45 6.65 -11.88 5.32 -10.31 4 C-9.44 3.26 -8.57 2.51 -7.68 1.75 C-4.76 -0.15 -3.4 -0.39 0 0 Z " fill="#F5E9B9" transform="translate(29,0)"/>
<path d="M0 0 C0.66 0.33 1.32 0.66 2 1 C2 1.99 2 2.98 2 4 C2.33 2.68 2.66 1.36 3 0 C4.32 0.66 5.64 1.32 7 2 C5.05 4.25 5.05 4.25 3.09 6.49 C1.8 7.96 1.8 7.96 2 10 C-4.15 9.41 -4.15 9.41 -6 9 C-6.33 8.34 -6.66 7.68 -7 7 C-6.01 7 -5.02 7 -4 7 C-3.34 5.35 -2.68 3.7 -2 2 C-1.34 2 -0.68 2 0 2 C0 1.34 0 0.68 0 0 Z " fill="#F1CB9F" transform="translate(40,1)"/>
<path d="M0 0 C1 2 2 4 3 6 C1.68 6 0.36 6 -1 6 C-1 6.66 -1 7.32 -1 8 C-3.38 8.19 -3.38 8.19 -6 8 C-6.66 7.01 -7.32 6.02 -8 5 C-7.34 3.68 -6.68 2.36 -6 1 C-5.34 1.33 -4.68 1.66 -4 2 C-4.33 2.66 -4.66 3.32 -5 4 C-3.35 4.33 -1.7 4.66 0 5 C-0.28 4.04 -0.28 4.04 -0.56 3.06 C-0.71 2.38 -0.85 1.7 -1 1 C-0.67 0.67 -0.34 0.34 0 0 Z " fill="#F0D89E" transform="translate(33,12)"/>
<path d="M0 0 C-1.41 0.65 -2.83 1.29 -4.25 1.94 C-5.04 2.3 -5.83 2.66 -6.64 3.03 C-9 4 -9 4 -11.23 4.44 C-11.82 4.63 -12.4 4.81 -13 5 C-13.33 5.99 -13.66 6.98 -14 8 C-14.66 8 -15.32 8 -16 8 C-16.33 7.01 -16.66 6.02 -17 5 C-14.1 2.6 -11.54 1.32 -7.94 0.25 C-7.08 -0.01 -6.22 -0.28 -5.34 -0.55 C-3 -1 -3 -1 0 0 Z " fill="#C48F86" transform="translate(37,21)"/>
<path d="M0 0 C0.66 0.66 1.32 1.32 2 2 C1.62 4.12 1.62 4.12 1 6 C1.99 6 2.98 6 4 6 C4 6.66 4 7.32 4 8 C3.01 8 2.02 8 1 8 C1 8.99 1 9.98 1 11 C0.01 10.67 -0.98 10.34 -2 10 C-2.2 3.95 -2.2 3.95 -2 2 C-1.34 1.34 -0.68 0.68 0 0 Z " fill="#E98E73" transform="translate(2,20)"/>
<path d="M0 0 C-5.14 5.57 -5.14 5.57 -9 6 C-9.33 5.01 -9.66 4.02 -10 3 C-6.68 -0.06 -4.45 -0.3 0 0 Z " fill="#ABE8F1" transform="translate(24,0)"/>
<path d="M0 0 C-0.55 3.37 -1.05 5.08 -3 8 C-4.32 7.34 -5.64 6.68 -7 6 C-6.69 4.12 -6.69 4.12 -6 2 C-3 0 -3 0 0 0 Z " fill="#F9F1C6" transform="translate(30,24)"/>
<path d="M0 0 C0.33 0.99 0.66 1.98 1 3 C2.32 3 3.64 3 5 3 C5 3.99 5 4.98 5 6 C4.01 6 3.02 6 2 6 C2.33 7.98 2.66 9.96 3 12 C2.34 12 1.68 12 1 12 C0.04 9.12 -0.11 7.3 -0.06 4.31 C-0.05 3.5 -0.04 2.7 -0.04 1.86 C-0.02 1.25 -0.01 0.63 0 0 Z " fill="#C6C0C1" transform="translate(43,23)"/>
<path d="M0 0 C1.65 0 3.3 0 5 0 C4.75 2.38 4.75 2.38 4 5 C1.44 6.79 0.17 7 -3 7 C-2.69 5.06 -2.69 5.06 -2 3 C-1.01 2.67 -0.02 2.34 1 2 C0.67 1.34 0.34 0.68 0 0 Z " fill="#F5EDBD" transform="translate(9,41)"/>
<path d="M0 0 C0.66 0.66 1.32 1.32 2 2 C1.84 2.8 1.67 3.61 1.5 4.44 C0.64 7.23 0.64 7.23 3 10 C1.35 10.66 -0.3 11.32 -2 12 C-2 9.03 -2 6.06 -2 3 C-1.34 3 -0.68 3 0 3 C0 2.01 0 1.02 0 0 Z " fill="#ECA889" transform="translate(15,34)"/>
<path d="M0 0 C2.5 1.81 2.5 1.81 5 4 C5 4.99 5 5.98 5 7 C2.36 7.33 -0.28 7.66 -3 8 C-2.67 7.01 -2.34 6.02 -2 5 C-1.01 4.67 -0.02 4.34 1 4 C0.67 2.68 0.34 1.36 0 0 Z " fill="#EB7261" transform="translate(34,13)"/>
<path d="M0 0 C0.99 0 1.98 0 3 0 C3 0.99 3 1.98 3 3 C3.66 3 4.32 3 5 3 C5.66 4.65 6.32 6.3 7 8 C4.05 6.63 1.56 5.01 -1 3 C-0.67 2.01 -0.34 1.02 0 0 Z " fill="#E87361" transform="translate(6,12)"/>
<path d="M0 0 C1.32 0 2.64 0 4 0 C4.66 1.65 5.32 3.3 6 5 C5.01 5.5 5.01 5.5 4 6 C3.34 5.67 2.68 5.34 2 5 C1.67 5.99 1.34 6.98 1 8 C0.67 5.36 0.34 2.72 0 0 Z " fill="#F0D7A0" transform="translate(35,25)"/>
<path d="M0 0 C3 1 3 1 4 2 C4.99 2.33 5.98 2.66 7 3 C6.67 3.66 6.34 4.32 6 5 C3.93 5.41 3.93 5.41 1.44 5.62 C0.61 5.7 -0.22 5.77 -1.07 5.85 C-2.02 5.93 -2.02 5.93 -3 6 C-1.68 5.34 -0.36 4.68 1 4 C0.67 2.68 0.34 1.36 0 0 Z " fill="#C2BCBD" transform="translate(38,16)"/>
<path d="M0 0 C1.65 1.65 3.3 3.3 5 5 C4.01 5.66 3.02 6.32 2 7 C1.34 6.01 0.68 5.02 0 4 C-0.33 4.66 -0.66 5.32 -1 6 C-1.66 6 -2.32 6 -3 6 C-3.33 4.68 -3.66 3.36 -4 2 C-2.68 1.34 -1.36 0.68 0 0 Z " fill="#EADAB6" transform="translate(12,9)"/>
<path d="M0 0 C0.33 0.66 0.66 1.32 1 2 C1.99 1.67 2.98 1.34 4 1 C3.34 2.65 2.68 4.3 2 6 C2.99 6 3.98 6 5 6 C5 6.66 5 7.32 5 8 C2.08 6.93 0.22 6.22 -2 4 C-1.34 2.68 -0.68 1.36 0 0 Z " fill="#F5E5B5" transform="translate(17,37)"/>
<path d="M0 0 C3 1 3 1 5 4 C4.62 6.19 4.62 6.19 4 8 C3.34 6.68 2.68 5.36 2 4 C0.68 4.33 -0.64 4.66 -2 5 C-1.12 1.12 -1.12 1.12 0 0 Z " fill="#EEAC8C" transform="translate(38,33)"/>
<path d="M0 0 C1.32 0 2.64 0 4 0 C3.12 4.75 3.12 4.75 2 7 C1.34 7 0.68 7 0 7 C0 4.69 0 2.38 0 0 Z " fill="#FAEEC4" transform="translate(0,0)"/>
<path d="M0 0 C0.66 0 1.32 0 2 0 C2 0.66 2 1.32 2 2 C2.99 1.67 3.98 1.34 5 1 C5 1.99 5 2.98 5 4 C3.19 5.06 3.19 5.06 1 6 C0.01 5.67 -0.98 5.34 -2 5 C-1.34 3.35 -0.68 1.7 0 0 Z " fill="#EC7A69" transform="translate(4,0)"/>
<path d="M0 0 C4.75 0.88 4.75 0.88 7 2 C6.67 2.99 6.34 3.98 6 5 C4.02 4.34 2.04 3.68 0 3 C0 2.01 0 1.02 0 0 Z " fill="#EAA281" transform="translate(35,9)"/>
<path d="M0 0 C1.98 0 3.96 0 6 0 C5.34 1.65 4.68 3.3 4 5 C3.01 5 2.02 5 1 5 C0.67 3.35 0.34 1.7 0 0 Z " fill="#CDCCCB" transform="translate(5,19)"/>
<path d="M0 0 C0.33 0 0.66 0 1 0 C1 2.64 1 5.28 1 8 C0.01 8 -0.98 8 -2 8 C-1.12 1.12 -1.12 1.12 0 0 Z " fill="#E47664" transform="translate(47,18)"/>
<path d="M0 0 C1.98 0.66 3.96 1.32 6 2 C6.33 1.34 6.66 0.68 7 0 C7.66 0 8.32 0 9 0 C8.67 1.32 8.34 2.64 8 4 C6.68 4.33 5.36 4.66 4 5 C2.68 3.35 1.36 1.7 0 0 Z " fill="#E66859" transform="translate(36,12)"/>
<path d="M0 0 C0.66 0 1.32 0 2 0 C2.33 2.64 2.66 5.28 3 8 C2.01 7.67 1.02 7.34 0 7 C0 4.69 0 2.38 0 0 Z " fill="#CBC3C4" transform="translate(45,40)"/>
<path d="M0 0 C0 0.66 0 1.32 0 2 C-0.99 2 -1.98 2 -3 2 C-3 2.99 -3 3.98 -3 5 C-3.99 4.67 -4.98 4.34 -6 4 C-6 3.01 -6 2.02 -6 1 C-3 0 -3 0 0 0 Z " fill="#EEB298" transform="translate(6,26)"/>
</svg>