<?xml version="1.0" encoding="UTF-8"?>
<svg fill-rule="evenodd" stroke-linejoin="round" preserveAspectRatio="xMidYMid" version="1.1" viewBox="0 0 48 48" xml:space="preserve" xmlns="http://www.w3.org/2000/svg">
<path d="m-0.2868-0.37389h48.866v48.866h-48.866v-48.866z" fill="#CADBBE"/>
<path d="m18.993-0.37389h29.587v48.866h-8.9716c-1.2408-3.6745-1.2408-3.6745-1.6206-4.8065-0.78263-2.3135-1.6473-4.5812-2.5788-6.8375-0.08399-0.20616-0.16989-0.41231-0.25579-0.62419-0.20806-0.50012-0.41613-1.0002-0.6261-1.4984-0.77499-1.8516-1.5404-3.7051-2.304-5.5605-1.0747-2.617-2.1608-5.2322-3.2527-7.8434-0.58792-1.4068-1.1701-2.8175-1.739-4.2319-0.64519-1.6072-1.3438-3.163-2.1379-4.7015-0.39895-0.7769-0.76926-1.5672-1.1377-2.3593-0.48866-1.0499-0.9926-2.0921-1.5156-3.1267-0.57074-1.1338-1.1262-2.2753-1.6702-3.4226-0.06681-0.14316-0.13553-0.28824-0.20616-0.43522-0.53448-1.1358-1.0518-2.2772-1.571-3.4187z" fill="#AAD2DE"/>
<path d="m12.312-0.37389h6.681c1.1262 2.0616 2.1532 4.1498 3.1324 6.282 0.6681 1.4526 1.3457 2.8938 2.0692 4.3197 0.65283 1.2866 1.2618 2.5922 1.8707 3.8998 0.1718 0.36459 0.3455 0.72918 0.52111 1.0938 0.70818 1.4832 1.34 2.9854 1.9432 4.5144 0.41231 1.0403 0.83417 2.0768 1.2713 3.1057 0.79026 1.8592 1.5576 3.728 2.325 5.5948 0.6471 1.5748 1.2961 3.1496 1.9528 4.7206 0.30732 0.733 0.61274 1.466 0.91625 2.199 0.14889 0.35886 0.29778 0.71773 0.44858 1.0747 1.1377 2.7067 2.1169 5.4498 3.0427 8.2328 0.05727 0.16798 0.11262 0.33596 0.1718 0.50966 0.15843 0.47912 0.31687 0.96015 0.4753 1.4393 0.04772 0.14698 0.09544 0.29205 0.14507 0.44285 0.33023 1.0098 0.33023 1.0098 0.33023 1.4374h-3.6268c0.06299-0.25197 0.12598-0.50394 0.19088-0.76354-0.85516 0.0859-0.85516 0.0859-1.5271 0.57265-0.09544-0.47339-0.09544-0.47339-0.19088-0.95442 0.15271-0.0859 0.30732-0.1737 0.46576-0.26342 0.50584-0.26151 0.50584-0.26151 0.67955-0.691-0.18898-0.06299-0.37795-0.12598-0.57265-0.19088 0.06299-0.12598 0.12598-0.25197 0.19088-0.38177-0.06299-0.18898-0.12598-0.37795-0.19088-0.57265-0.18898-0.06299-0.37795-0.12598-0.57265-0.19088-0.06299 0.25197-0.12598 0.50394-0.19088 0.76354 0.12598 0.06299 0.25197 0.12598 0.38177 0.19088 0.06299-0.25197 0.12598-0.50394 0.19088-0.76354 0.06299 0.25197 0.12598 0.50394 0.19088 0.76354-0.18325 0.07635-0.18325 0.07635-0.37032 0.15462-0.45621 0.20616-0.45621 0.20616-0.58411 0.79981-0.09735-0.24242-0.19088-0.48485-0.28633-0.72727-0.05345-0.13553-0.1069-0.27106-0.16034-0.4104-0.12598-0.3894-0.12598-0.3894-0.12598-0.96206 0.37795-0.06299 0.7559-0.12598 1.1453-0.19088-0.25197-0.06299-0.50394-0.12598-0.76354-0.19088v-0.38177c0.12598-0.06299 0.25197-0.12598 0.38177-0.19088v-0.57265c-0.75018 0.1088-0.75018 0.1088-1.3362 0.57265-0.19279-0.46576-0.38368-0.92961-0.57265-1.3954-0.05536-0.13171-0.1088-0.26342-0.16607-0.39895-0.23288-0.57647-0.40658-1.0155-0.40658-1.6416h0.38177c-0.06299-0.18898-0.12598-0.37795-0.19088-0.57265h0.57265c-0.18325-0.07063-0.18325-0.07063-0.37032-0.14316-0.39322-0.23861-0.39322-0.23861-0.53639-0.64328-0.01527-0.11835-0.03245-0.2367-0.04772-0.35886h0.38177v0.57265c0.12598-0.06299 0.25197-0.12598 0.38177-0.19088v-0.57265h-0.95442c0.09544 0.47339 0.09544 0.47339 0.19088 0.95442h-0.38177c-0.09544-0.66237-0.09544-0.66237-0.19088-1.3362 0.31496-0.06299 0.62992-0.12598 0.95442-0.19088v-0.57265c-0.75018 0.1088-0.75018 0.1088-1.3362 0.57265-0.18898-0.66237-0.18898-0.66237-0.38177-1.3362 0.31496-0.12598 0.62992-0.25197 0.95442-0.38177v-0.95442c-0.55738 0.20425-0.91243 0.33977-1.3362 0.76354-0.92197-2.0062-1.8439-4.0143-2.7564-6.0262-0.05536-0.12407-0.11071-0.24624-0.16798-0.37413-0.11644-0.25388-0.23097-0.50775-0.34741-0.76163-0.0859-0.19279-0.0859-0.19279-0.17561-0.3894-0.05917-0.13171-0.11835-0.26151-0.17943-0.39704-0.71963-1.5843-1.4431-3.1687-2.1761-4.7492-0.1069-0.22906-0.1069-0.22906-0.2157-0.46385-0.14316-0.31114-0.28824-0.62419-0.43331-0.93533-0.07063-0.15462-0.14316-0.31114-0.21761-0.46958-0.07063-0.15462-0.14316-0.31114-0.21761-0.46958-1.0021-2.1665-1.9852-4.3388-2.9511-6.5206-0.37604-0.85135-0.75399-1.7027-1.132-2.5521-0.24433-0.54975-0.48866-1.0995-0.72918-1.6512-1.2026-2.7487-2.7678-5.2646-4.3464-7.8091-0.71963-1.1644-0.71963-1.1644-1.0422-1.6893-0.09162-0.1508-0.18325-0.29969-0.27869-0.45431-0.1947-0.36459-0.1947-0.36459-0.1947-0.74636z" fill="#CCE8B1"/>
<path d="m8.303 7.2615c0.58411 0.1947 0.75781 0.37413 1.0842 0.9067 0.11453 0.23288 0.22524 0.46767 0.33596 0.70436 0.06108 0.12789 0.12407 0.25579 0.18707 0.3894 0.14316 0.29778 0.28633 0.59747 0.42758 0.89716 0.29969 0.63183 0.6032 1.2598 0.9067 1.8878 0.61274 1.2675 1.2217 2.535 1.8306 3.8043 0.59174 0 0.92006-0.34168 1.4011-0.67573 0.20234-0.13744 0.40658-0.27678 0.61465-0.41995 0.32259-0.22143 0.64519-0.44476 0.96778-0.6681 0.31114-0.2157 0.62228-0.42758 0.93533-0.64137 0.18516-0.12789 0.37222-0.25769 0.56502-0.3894 0.15843-0.0859 0.31687-0.1718 0.47912-0.2596 0.28251 0.09544 0.28251 0.09544 0.57265 0.19088 0.13744 0.37795 0.26342 0.76163 0.38177 1.1453 0.29014 0.5822 0.58792 1.1568 0.89716 1.7275 0.16034 0.30923 0.3016 0.6261 0.43903 0.94488-0.26151 0.78263-0.59747 0.83607-1.3266 1.2007-0.11644 0.05917-0.23288 0.11835-0.35123 0.17943-0.37413 0.19088-0.75018 0.37795-1.1262 0.56502-0.48676 0.24433-0.9716 0.48866-1.4564 0.73491-0.12217 0.06108-0.24242 0.12407-0.36841 0.18707-1.7829 0.91052-3.539 1.8917-5.1902 3.0274-0.24051 0.16225-0.48294 0.32641-0.72345 0.49057-0.12026 0.08017-0.23861 0.16225-0.36268 0.24624-0.3455 0.23288-0.69673 0.46385-1.046 0.69291-2.1303 1.3916-4.1861 2.8862-6.2018 4.4381-0.12789 0.09735-0.25579 0.1947-0.3875 0.29587-0.11071 0.0859-0.22143 0.1718-0.33596 0.2596-0.55738 0.3875-1.1472 0.70818-1.739 1.0441-0.0439-1.9871-0.07826-3.9723-0.09926-5.9594-0.00954-0.92197-0.02291-1.8439-0.0439-2.7659-0.021-0.89143-0.03245-1.7829-0.03818-2.6743-0.00382-0.33977-0.00954-0.67764-0.021-1.0174-0.07635-2.6533-0.07635-2.6533 0.62037-3.6287 0.4753-0.43331 0.9487-0.78835 1.4908-1.1338 0.18898-0.16034 0.37795-0.31878 0.57265-0.48294 0.15271-0.12407 0.30732-0.24815 0.46576-0.37604 0.17561-0.14316 0.34932-0.28442 0.53066-0.4314 0.34932-0.2806 0.69864-0.56311 1.0499-0.84371 1.4049-1.1338 2.785-2.3154 4.062-3.5924z" fill="#ACD09D"/>
<path d="m20.197 17.396c0.99642 0.53639 1.4603 2.3383 1.8439 3.3214 0.39131 1.0079 0.39131 1.0079 0.90098 1.9585 0.30351 0.52111 0.35505 0.98306 0.44094 1.5748-0.66046 0.25579-1.3209 0.50966-1.9814 0.76354-0.18707 0.07254-0.37604 0.14507-0.56884 0.21952-0.17943 0.07063-0.35886 0.13935-0.54402 0.20997-0.16607 0.06299-0.33214 0.12789-0.50394 0.19279-0.4104 0.14125-0.4104 0.14125-0.79217 0.14125 0.25197 0.7559 0.50394 1.5118 0.76354 2.2906-0.37795 0.12598-0.7559 0.25197-1.1453 0.38177 0.04199 0.10308 0.08208 0.20616 0.12598 0.31305 0.05154 0.13744 0.10499 0.27296 0.16034 0.41422 0.05345 0.13553 0.1069 0.27106 0.16034 0.4104 0.12598 0.3894 0.12598 0.3894 0.12598 0.96206-0.7769 0.33787-1.5557 0.6681-2.3383 0.99069-0.15843 0.0649-0.31687 0.1298-0.48103 0.19852-0.42567 0.14698-0.42567 0.14698-0.99833 0.14698v0.95442c0.66046-0.09544 0.66046-0.09544 1.3362-0.19088v0.38177h-2.2906c0.25197-0.06299 0.50394-0.12598 0.76354-0.19088v-0.95442c-0.37795 0.31496-0.7559 0.62992-1.1453 0.95442-0.06299-0.31496-0.12598-0.62992-0.19088-0.95442h-0.57265c-0.06299 0.31496-0.12598 0.62992-0.19088 0.95442h-0.19088v-1.5271h-0.38177v0.38177c-0.40658 0.22715-0.40658 0.22715-0.95442 0.38177-0.62037-0.20234-0.62037-0.20234-1.1453-0.57265-0.12789-0.50012-0.12789-0.50012-0.19088-0.95442-0.40277 0.1069-0.80362 0.21952-1.2045 0.33405-0.22524 0.06108-0.44858 0.12407-0.67764 0.18707-0.6261 0.25388-0.83798 0.4314-1.172 1.006v-0.57265c-0.20616 0.07444-0.4104 0.1508-0.62228 0.22715-0.75972 0.27869-1.5214 0.55547-2.283 0.83226-0.32832 0.12026-0.65855 0.24051-0.98687 0.36077-0.47339 0.1737-0.94679 0.3455-1.4202 0.5173-0.22143 0.08208-0.22143 0.08208-0.44667 0.16607-0.58602 0.20997-1.0575 0.37795-1.6855 0.37795-0.42185-3.1782-0.42185-3.1782 0.22143-4.1556 0.61083-0.58411 1.3438-0.9716 2.0845-1.3648 0.57456-0.3245 1.0575-0.72345 1.571-1.1377 2.5998-2.0272 5.341-3.8349 8.1489-5.5586 0.13935-0.0859 0.27869-0.1737 0.42185-0.26151 1.3725-0.83798 2.7812-1.6072 4.1995-2.367 0.27678-0.1508 0.55547-0.3016 0.83226-0.4524 0.40658-0.22143 0.81317-0.44094 1.2198-0.65855 0.18516-0.10308 0.18516-0.10308 0.37413-0.20806 0.48676-0.25579 0.85516-0.44858 1.4106-0.42567z" fill="#FEFEE2"/>
<path d="m36.172-0.37389h12.408v11.644c-2.8633 1.5271-2.8633 1.5271-3.8177 1.718v0.38177c-1.0728 0.57265-1.0728 0.57265-1.718 0.57265-1.0766-2.1322-2.1398-4.2701-3.161-6.4309-0.73109-1.5443-1.4965-3.0656-2.3078-4.5679-1.403-2.6094-1.403-2.6094-1.403-3.3176z" fill="#ACCEA1"/>
<path d="m12.312-0.37389c0.86089-0.13553 1.6244-0.17943 2.4815 0 0.69291 0.62037 1.0632 1.3725 1.4794 2.1952 0.11071 0.20234 0.22143 0.40468 0.33596 0.61274 0.23288 0.42376 0.46003 0.84944 0.68337 1.2789 0.31687 0.60129 0.65092 1.1892 0.99069 1.7771 1.0155 1.7676 1.8821 3.5905 2.7258 5.4459 0.14889 0.32641 0.29969 0.65092 0.44858 0.97733 1.0537 2.3021 2.0826 4.6137 3.1038 6.9291 0.97351 2.2047 1.9814 4.3884 3.0122 6.5664 0.95061 2.01 1.8497 4.0334 2.6819 6.0949-0.11644 0.02672-0.23479 0.05154-0.35505 0.07826-0.50012 0.13744-0.79408 0.33405-1.172 0.68528v0.57265h-0.38177c-0.13744-0.31114-0.13744-0.31114-0.27678-0.62801-0.86662-1.9604-1.7561-3.9112-2.659-5.8544-1.1396-2.4548-2.2658-4.9153-3.3577-7.393-0.50394-1.1396-1.0117-2.2792-1.5194-3.4187-0.13935-0.31305-0.27869-0.6261-0.41804-0.93915-1.8745-4.2166-3.8158-8.2748-6.3183-12.159-0.33977-0.53066-0.67573-1.067-1.004-1.6053-0.09353-0.1508-0.18707-0.30351-0.28251-0.46003-0.19852-0.37413-0.19852-0.37413-0.19852-0.7559z" fill="#FDFDFD"/>
<path d="m48.58 11.27v15.08c-0.41231-0.54975-0.66046-0.89716-0.91434-1.5004-0.06108-0.14125-0.12217-0.28442-0.18325-0.4314-0.0649-0.15271-0.12789-0.30542-0.1947-0.46194-0.06681-0.16034-0.13553-0.32259-0.20616-0.48676-0.21761-0.51539-0.43331-1.0308-0.64901-1.5462-0.14316-0.33596-0.28442-0.67382-0.42758-1.0098-0.41613-0.98687-0.83035-1.9738-1.2427-2.9625-0.06681-0.15843-0.13171-0.31496-0.20043-0.47912-0.18707-0.44667-0.37413-0.89525-0.55929-1.3438-0.05727-0.13362-0.11262-0.26533-0.16989-0.40277-0.24242-0.58792-0.47148-1.1587-0.59747-1.7829 1.0976-0.57265 1.0976-0.57265 1.5271-0.57265-0.06299-0.18898-0.12598-0.37795-0.19088-0.57265h0.38177c0.06299-0.12598 0.12598-0.25197 0.19088-0.38177v0.38177c0.2157-0.11071 0.4314-0.22143 0.65473-0.33405 0.28251-0.14316 0.56502-0.28633 0.84944-0.42949 0.14125-0.07254 0.28442-0.14507 0.4314-0.22143 0.13553-0.06872 0.27296-0.13744 0.41231-0.20806 0.12598-0.0649 0.25197-0.12789 0.38177-0.1947 0.3245-0.13935 0.3245-0.13935 0.70627-0.13935z" fill="#C6F5CD"/>
<path d="m0.47674 2.4894c0.42567 0.39322 0.69864 0.7559 0.95633 1.2732 0.06872 0.13935 0.13935 0.27869 0.20997 0.42185 0.07254 0.14889 0.14507 0.29778 0.22143 0.4524 0.07444 0.15271 0.1508 0.30732 0.22906 0.46576 0.16034 0.32641 0.31878 0.65283 0.47721 0.97733 0.24433 0.50012 0.49057 0.99833 0.73872 1.4946 0.15462 0.31687 0.30923 0.63374 0.46385 0.95061 0.11071 0.22333 0.11071 0.22333 0.22524 0.45049 0.06681 0.13935 0.13362 0.27869 0.20234 0.42376 0.05917 0.12217 0.11835 0.24433 0.18134 0.36841 0.1298 0.45049 0.08017 0.68528-0.08781 1.1205-0.33405 0.35505-0.66046 0.67191-1.027 0.99069-0.10117 0.08972-0.20234 0.18134-0.30732 0.27487-2.8747 2.5521-2.8747 2.5521-3.247 2.5521-0.01718-1.508-0.03054-3.016-0.04009-4.524-0.00382-0.70055-0.00954-1.4011-0.01718-2.1016-0.00954-0.67573-0.01336-1.3515-0.01527-2.0272-0.00191-0.38368-0.00764-0.76736-0.01336-1.151v-0.70627c-0.00191-0.20616-0.00382-0.4104-0.00573-0.62228 0.09162-0.51157 0.09162-0.51157 0.47912-0.86852 0.12407-0.07063 0.24815-0.14316 0.37604-0.2157z" fill="#F1EEE8"/>
<path d="m28.155 31.886c0.22333 0.37222 0.22333 0.37222 0.4314 0.85325 0.11453 0.25769 0.11453 0.25769 0.22906 0.52111 0.07826 0.17943 0.15462 0.36077 0.23479 0.54593 0.07826 0.18134 0.15843 0.36268 0.24051 0.54975 0.1947 0.44858 0.3894 0.89716 0.5822 1.3476 0.44094-0.12598 0.88189-0.25197 1.3362-0.38177 0.06299 0.31496 0.12598 0.62992 0.19088 0.95442-0.47148 0.28442-0.47148 0.28442-0.95442 0.57265 0.12598 0.25197 0.25197 0.50394 0.38177 0.76354l0.38177-0.38177c0.50012 0.07254 0.50012 0.07254 0.95442 0.19088-0.06299 0.25197-0.12598 0.50394-0.19088 0.76354h-0.95442c0.06299 0.44094 0.12598 0.88189 0.19088 1.3362 0.06299-0.31496 0.12598-0.62992 0.19088-0.95442 0.47148-0.09544 0.47148-0.09544 0.95442-0.19088 0.06299 0.25197 0.12598 0.50394 0.19088 0.76354-0.28442 0.09544-0.28442 0.09544-0.57265 0.19088v-0.57265h-0.38177c0.12598 0.25197 0.25197 0.50394 0.38177 0.76354h0.76354c0.06299 0.18898 0.12598 0.37795 0.19088 0.57265h-0.76354v0.38177h-0.38177c0.37795 1.0079 0.7559 2.0157 1.1453 3.0542 0.25197-0.12598 0.50394-0.25197 0.76354-0.38177 0.42949 0.07254 0.42949 0.07254 0.76354 0.19088-0.16798 0.74063-0.16798 0.74063-0.38177 0.95442 0.25197 0.06299 0.50394 0.12598 0.76354 0.19088-0.06299 0.12598-0.12598 0.25197-0.19088 0.38177h-1.1453c0.18898 0.50394 0.37795 1.0079 0.57265 1.5271 0.37795-0.18898 0.37795-0.18898 0.76354-0.38177v-0.38177c-0.06299 0.12598-0.12598 0.25197-0.19088 0.38177-0.25197-0.06299-0.50394-0.12598-0.76354-0.19088 0.09544-0.28442 0.09544-0.28442 0.19088-0.57265 0.06299 0.12598 0.12598 0.25197 0.19088 0.38177 0.09544-0.28442 0.09544-0.28442 0.19088-0.57265 0.25197 0.06299 0.50394 0.12598 0.76354 0.19088 0.1069 0.37032 0.1069 0.37032 0.19088 0.76354l-0.19088 0.19088c0.18898 0.09544 0.18898 0.09544 0.38177 0.19088-0.09544 0.28442-0.09544 0.28442-0.19088 0.57265l0.38177 0.38177h-1.3362c0.18898 0.28442 0.18898 0.28442 0.38177 0.57265 0.14889-0.06681 0.29969-0.13362 0.45431-0.20234 0.16416-0.05917 0.33023-0.11835 0.50012-0.17943 0.18898 0.09544 0.18898 0.09544 0.38177 0.19088-0.09544 0.37795-0.09544 0.37795-0.19088 0.76354h-2.4815c-0.0859-0.22143-0.16989-0.44285-0.2596-0.67191-0.11644-0.29969-0.23288-0.60129-0.34932-0.90288-0.08399-0.21761-0.08399-0.21761-0.16798-0.43903-0.39704-1.025-0.81508-2.0386-1.2408-3.0542-0.31687-0.76354-0.62801-1.5309-0.93915-2.3002-0.05917-0.14507-0.11644-0.29014-0.17752-0.43903-0.12217-0.3016-0.24433-0.6032-0.36459-0.90479-1.0422-2.5769-2.0883-5.1501-3.182-7.7041 0.691-0.40468 0.691-0.40468 1.3362-0.19088z" fill="#C9E2B3"/>
<path d="m29.682 31.313c0.25197 0.12598 0.50394 0.25197 0.76354 0.38177v0.38177h0.38177c0.08399 0.24242 0.08399 0.24242 0.16798 0.49057 0.07826 0.22333 0.15653 0.44858 0.2367 0.67764 0.07635 0.21761 0.1508 0.43522 0.22906 0.65855 0.24433 0.66428 0.52111 1.3114 0.80553 1.9604 0.84562 1.9547 1.5958 3.9475 2.3574 5.9365 0.26151 0.68337 0.52302 1.3667 0.78644 2.0482 0.16798 0.43713 0.33405 0.87234 0.50203 1.3095 0.07826 0.20234 0.15653 0.40658 0.2367 0.61465 0.34359 0.90098 0.68337 1.8 0.97733 2.7201h-1.1453c0.09544-0.37795 0.09544-0.37795 0.19088-0.76354-0.85516 0.0859-0.85516 0.0859-1.5271 0.57265-0.06299-0.31496-0.12598-0.62992-0.19088-0.95442 0.15271-0.0859 0.30732-0.1737 0.46576-0.26342 0.50584-0.26151 0.50584-0.26151 0.67955-0.691-0.18898-0.06299-0.37795-0.12598-0.57265-0.19088 0.06299-0.12598 0.12598-0.25197 0.19088-0.38177-0.06299-0.18898-0.12598-0.37795-0.19088-0.57265-0.18898-0.06299-0.37795-0.12598-0.57265-0.19088-0.06299 0.25197-0.12598 0.50394-0.19088 0.76354 0.12598 0.06299 0.25197 0.12598 0.38177 0.19088 0.09544-0.37795 0.09544-0.37795 0.19088-0.76354 0.06299 0.25197 0.12598 0.50394 0.19088 0.76354-0.18325 0.07635-0.18325 0.07635-0.37032 0.15462-0.45621 0.20616-0.45621 0.20616-0.58411 0.79981-0.09735-0.24242-0.19088-0.48485-0.28633-0.72727-0.05345-0.13553-0.1069-0.27106-0.16034-0.4104-0.12598-0.3894-0.12598-0.3894-0.12598-0.96206 0.56693-0.09544 0.56693-0.09544 1.1453-0.19088-0.25197-0.06299-0.50394-0.12598-0.76354-0.19088v-0.38177c0.18898-0.09544 0.18898-0.09544 0.38177-0.19088v-0.57265c-0.75018 0.1088-0.75018 0.1088-1.3362 0.57265-0.19279-0.46576-0.38368-0.92961-0.57265-1.3954-0.05536-0.13171-0.1088-0.26342-0.16607-0.39895-0.23288-0.57647-0.40658-1.0155-0.40658-1.6416h0.38177c-0.06299-0.18898-0.12598-0.37795-0.19088-0.57265h0.57265c-0.12217-0.04772-0.24433-0.09544-0.37032-0.14316-0.39322-0.23861-0.39322-0.23861-0.53639-0.64328-0.01527-0.11835-0.03054-0.2367-0.04772-0.35886h0.38177v0.57265c0.18898-0.09544 0.18898-0.09544 0.38177-0.19088v-0.57265h-0.95442c0.06299 0.31496 0.12598 0.62992 0.19088 0.95442h-0.38177c-0.06299-0.44094-0.12598-0.88189-0.19088-1.3362 0.47148-0.09544 0.47148-0.09544 0.95442-0.19088v-0.57265c-0.75018 0.1088-0.75018 0.1088-1.3362 0.57265-0.12598-0.44094-0.25197-0.88189-0.38177-1.3362 0.31496-0.12598 0.62992-0.25197 0.95442-0.38177v-0.95442c-0.55738 0.20425-0.91243 0.33977-1.3362 0.76354-0.22524-0.45621-0.44667-0.91434-0.6681-1.3725-0.06299-0.12789-0.12789-0.25579-0.19279-0.3894-0.61656-1.2904-0.61656-1.2904-0.4753-2.0558 0.33405-0.40277 0.71773-0.64137 1.1453-0.95442z" fill="#E4E4E3"/>
<path d="m33.5 41.812c-0.06299 0.18898-0.12598 0.37795-0.19088 0.57265h-0.57265v0.38177c0.76545 0.30542 1.34 0.04199 2.0997-0.19088 0.31114 0.77117 0.62037 1.5424 0.93152 2.3135 0.08781 0.21952 0.17561 0.43713 0.26533 0.66237 0.08399 0.20997 0.16989 0.42185 0.25769 0.64137 0.07826 0.19279 0.15462 0.3875 0.23479 0.58602 0.21952 0.56693 0.41422 1.1377 0.60129 1.7141h-1.1453c0.06299-0.25197 0.12598-0.50394 0.19088-0.76354-0.85516 0.0859-0.85516 0.0859-1.5271 0.57265-0.06299-0.31496-0.12598-0.62992-0.19088-0.95442 0.15271-0.0859 0.30732-0.1737 0.46576-0.26342 0.50584-0.26151 0.50584-0.26151 0.67955-0.691-0.18898-0.06299-0.37795-0.12598-0.57265-0.19088 0.06299-0.12598 0.12598-0.25197 0.19088-0.38177-0.06299-0.18898-0.12598-0.37795-0.19088-0.57265-0.18898-0.06299-0.37795-0.12598-0.57265-0.19088-0.06299 0.25197-0.12598 0.50394-0.19088 0.76354 0.12598 0.06299 0.25197 0.12598 0.38177 0.19088 0.06299-0.25197 0.12598-0.50394 0.19088-0.76354 0.06299 0.25197 0.12598 0.50394 0.19088 0.76354-0.12217 0.05154-0.24433 0.10308-0.37032 0.15462-0.45621 0.20616-0.45621 0.20616-0.58411 0.79981-0.09735-0.24242-0.19088-0.48485-0.28633-0.72727-0.05345-0.13553-0.1069-0.27106-0.16034-0.4104-0.12598-0.3894-0.12598-0.3894-0.12598-0.96206 0.37795-0.06299 0.7559-0.12598 1.1453-0.19088-0.25197-0.06299-0.50394-0.12598-0.76354-0.19088v-0.38177c0.12598-0.06299 0.25197-0.12598 0.38177-0.19088v-0.57265c-0.75018 0.1088-0.75018 0.1088-1.3362 0.57265-0.18898-0.62992-0.37795-1.2598-0.57265-1.9088 0.57265-0.19088 0.57265-0.19088 1.1453-0.19088z" fill="#F8F8F8"/>
<path d="m-0.2868-0.37389h4.3904c-0.75018 0.75018-1.4736 1.3935-2.3021 2.0406-0.17561 0.13935-0.17561 0.13935-0.35505 0.2806-0.11262 0.08972-0.22715 0.17752-0.34359 0.26915-0.15271 0.12026-0.15271 0.12026-0.30923 0.24242-0.31687 0.22143-0.31687 0.22143-1.0804 0.6032v-3.4359z" fill="#D18392"/>
<path d="m9.4483 30.549h0.76354c0.0649 0.22524 0.0649 0.22524 0.13171 0.45431 0.20806 0.54211 0.20806 0.54211 0.75018 0.75018 0.22524 0.0649 0.22524 0.0649 0.45431 0.13171v0.95442c-0.06299-0.25197-0.12598-0.50394-0.19088-0.76354h-0.38177v0.76354c-0.34932-0.00573-0.34932-0.00573-0.70436-0.01145-0.61656-0.00191-1.1758 0.05154-1.7771 0.20234v-1.9088c0.31496-0.06299 0.62992-0.12598 0.95442-0.19088v-0.38177z" fill="#D2C7B8"/>
<path d="m43.426 5.1618c0.59747 0.96015 0.59747 0.96015 0.51348 1.5996-0.0439 0.10117-0.08781 0.20425-0.13171 0.30923-0.57456 0.17752-0.73872 0.19852-1.3362 0 0.06299 0.25197 0.12598 0.50394 0.19088 0.76354-0.18898 0.06299-0.37795 0.12598-0.57265 0.19088v-1.1453c-0.18898-0.06299-0.37795-0.12598-0.57265-0.19088h0.38177c-0.06299-0.37795-0.12598-0.7559-0.19088-1.1453 1.0728-0.59556 1.0728-0.59556 1.718-0.38177z" fill="#C4DBBC"/>
<path d="m38.941-0.39253c0.28824 0.00382 0.28824 0.00382 0.58411 0.00764 0.19279 0 0.38559 0.00191 0.58411 0.00382 0.22524 0.00382 0.22524 0.00382 0.45431 0.00764 0.06299 0.25197 0.12598 0.50394 0.19088 0.76354-0.18898 0.06299-0.37795 0.12598-0.57265 0.19088v-0.38177h-0.38177c0.12598 0.25197 0.25197 0.50394 0.38177 0.76354 0.31496-0.12598 0.62992-0.25197 0.95442-0.38177 0.06299 0.18898 0.12598 0.37795 0.19088 0.57265-0.14316 0.02291-0.28442 0.04772-0.42949 0.07063-0.52302 0.08972-0.52302 0.08972-0.9067 0.35886-0.12598 0.04772-0.25197 0.09353-0.38177 0.14316-0.52493-0.23861-0.52493-0.23861-0.95442-0.57265v-0.38177h0.38177c-0.06299-0.12598-0.12598-0.25197-0.19088-0.38177-0.18898 0.09353-0.18898 0.09353-0.38177 0.19088-0.1088-0.37032-0.1088-0.37032-0.19088-0.76354 0.19088-0.19088 0.19088-0.19088 0.6681-0.20997z" fill="#9CB1AA"/>
<path d="m41.326 1.3441c0.12598 0.25197 0.25197 0.50394 0.38177 0.76354-0.25197 0.06299-0.50394 0.12598-0.76354 0.19088h0.57265c0.18898 0.06299 0.37795 0.12598 0.57265 0.19088v0.76354h-0.57265c-0.39131 0.35123-0.39131 0.35123-0.57265 0.76354-0.93152-0.50012-0.93152-0.50012-1.1453-1.1453h0.38177v-0.57265h0.38177c-0.06299-0.18898-0.12598-0.37795-0.19088-0.57265h0.95442v-0.38177z" fill="#8CA196"/>
<path d="m42.471 8.025c0.38177 0.57265 0.38177 0.57265 0.38177 0.95442h0.38177c0.06299 0.25197 0.12598 0.50394 0.19088 0.76354-0.12217 0.01909-0.24433 0.04009-0.37032 0.05917-0.1298 0.0439-0.2596 0.08781-0.39322 0.13171-0.06299 0.18898-0.12598 0.37795-0.19088 0.57265v-0.57265c-0.18898-0.06299-0.37795-0.12598-0.57265-0.19088-0.12598 0.25197-0.25197 0.50394-0.38177 0.76354-0.35123-0.72154-0.41231-1.1358-0.19088-1.9088 0.31496 0.06299 0.62992 0.12598 0.95442 0.19088 0.06299-0.25197 0.12598-0.50394 0.19088-0.76354z" fill="#9BBE8D"/>
<path d="m9.4483 30.549h0.76354c0.0439 0.14889 0.0859 0.29969 0.13171 0.45431 0.20806 0.54211 0.20806 0.54211 0.75018 0.75018 0.22524 0.0649 0.22524 0.0649 0.45431 0.13171v0.95442c-0.06299-0.25197-0.12598-0.50394-0.19088-0.76354h-0.38177v0.76354h-1.3362v-1.3362h0.57265c-0.05154-0.37795-0.05154-0.37795-0.19088-0.76354-0.18898-0.06299-0.37795-0.12598-0.57265-0.19088z" fill="#BBA98B"/>
<path d="m14.793-0.37389h2.4815c-0.54402 0.55929-1.0785 1.0766-1.718 1.5271-0.76354-1.0976-0.76354-1.0976-0.76354-1.5271z" fill="#BABBB9"/>
<path d="m34.108 43.219c0.11453 0.04009 0.22906 0.07826 0.3455 0.11835-0.16607 0.74063-0.16607 0.74063-0.38177 0.95442 0.25197 0.0649 0.50394 0.12598 0.76354 0.19088-0.06299 0.12598-0.12598 0.25197-0.19088 0.38177h-1.3362c-0.06299-0.44094-0.12598-0.88189-0.19088-1.3362 0.57265-0.38177 0.57265-0.38177 0.99069-0.30923z" fill="#B8B8B6"/>
<path d="m41.135 0.58054 0.57265 0.57265c-0.26533 0.53066-0.6032 0.56884-1.1453 0.76354v0.38177h-0.38177v0.57265c-0.18898 0.06299-0.37795 0.12598-0.57265 0.19088-0.06299-0.18898-0.12598-0.37795-0.19088-0.57265h0.38177c-0.06299-0.25197-0.12598-0.50394-0.19088-0.76354 1.0976-0.76354 1.0976-0.76354 1.5271-0.76354v-0.38177z" fill="#C3DBBA"/>
<path d="m28.919 31.886c0.28251 0.04772 0.56502 0.10117 0.84753 0.15462 0.23479 0.0439 0.23479 0.0439 0.4753 0.08781 0.13171 0.04581 0.26151 0.09162 0.39513 0.13935 0.06299 0.18898 0.12598 0.37795 0.19088 0.57265-0.06299 0.12598-0.12598 0.25197-0.19088 0.38177-0.39513 0.07826-0.39513 0.07826-0.87043 0.11835-0.15843 0.01527-0.31687 0.02863-0.47912 0.0439-0.18134 0.01527-0.18134 0.01527-0.36841 0.02863v-0.38177c0.18898-0.12598 0.37795-0.25197 0.57265-0.38177-0.31496-0.06299-0.62992-0.12598-0.95442-0.19088 0.12598-0.18898 0.25197-0.37795 0.38177-0.57265z" fill="#8C8C8B"/>
<path d="m32.545 38.567c-0.06299 0.25197-0.12598 0.50394-0.19088 0.76354h-0.38177v-0.57265h-0.38177c0.12598 0.25197 0.25197 0.50394 0.38177 0.76354h0.76354c0.06299 0.18898 0.12598 0.37795 0.19088 0.57265h-0.76354v0.38177h-0.57265c-0.11835-0.65664-0.19088-1.2388-0.19088-1.9088 0.4753-0.23861 0.65092-0.14889 1.1453 0z" fill="#979796"/>
<path d="m46.48 16.233h0.38177c0.12598 0.31496 0.25197 0.62992 0.38177 0.95442h0.38177c0.13362 0.24051 0.26342 0.48485 0.39322 0.72727 0.07444 0.13553 0.14698 0.27106 0.22143 0.4104 0.14889 0.3894 0.14889 0.3894-0.04199 0.96206-0.06299-0.18898-0.12598-0.37795-0.19088-0.57265h-0.38177c-0.49057-0.81699-0.87616-1.5595-1.1453-2.4815z" fill="#9CB0E7"/>
<path d="m34.454 45.057c0.25197 0.06299 0.50394 0.12598 0.76354 0.19088 0.1069 0.37032 0.1069 0.37032 0.19088 0.76354l-0.19088 0.19088c0.12598 0.06299 0.25197 0.12598 0.38177 0.19088-0.06299 0.18898-0.12598 0.37795-0.19088 0.57265-0.31496-0.06299-0.62992-0.12598-0.95442-0.19088 0.06299-0.25197 0.12598-0.50394 0.19088-0.76354-0.25197-0.06299-0.50394-0.12598-0.76354-0.19088 0.06299-0.18898 0.12598-0.37795 0.19088-0.57265 0.06299 0.12598 0.12598 0.25197 0.19088 0.38177 0.06299-0.18898 0.12598-0.37795 0.19088-0.57265z" fill="#6A6B6A"/>
<path d="m33.691 41.43c0.21379 0.71582 0.21379 0.71582 0 1.1453h0.38177v0.38177c-0.37795 0.06299-0.7559 0.12598-1.1453 0.19088-0.06299-0.25197-0.12598-0.50394-0.19088-0.76354 0.18898-0.06299 0.37795-0.12598 0.57265-0.19088 0.06299-0.12598 0.12598-0.25197 0.19088-0.38177-0.31496 0.06299-0.62992 0.12598-0.95442 0.19088 0.50012-0.57265 0.50012-0.57265 1.1453-0.57265z" fill="#636562"/>
<path d="m12.502 31.313h0.38177v1.5271h-0.95442c-0.06299-0.25197-0.12598-0.50394-0.19088-0.76354 0.25197-0.12598 0.50394-0.25197 0.76354-0.38177v-0.38177z" fill="#C4B596"/>
<path d="m31.209 35.322c0.06299 0.31496 0.12598 0.62992 0.19088 0.95442-0.9067 0.19088-0.9067 0.19088-1.3362 0.19088 0.06299-0.31496 0.12598-0.62992 0.19088-0.95442 0.57265-0.19088 0.57265-0.19088 0.95442-0.19088z" fill="#9C9D9B"/>
<path d="m43.426 5.1618c-0.06299 0.31496-0.12598 0.62992-0.19088 0.95442-0.64328-0.10499-0.96969-0.20043-1.5271-0.57265 1.0728-0.59556 1.0728-0.59556 1.718-0.38177z" fill="#7C8478"/>
<path d="m22.238 26.35h0.76354v1.3362h-0.76354c-0.21379-0.9067-0.21379-0.9067 0-1.3362z" fill="#B6B5B2"/>
<path d="m16.511 31.695c-0.06299 0.12598-0.12598 0.25197-0.19088 0.38177l0.19088 0.19088v0.57265h-1.1453v-0.95442c0.57265-0.19088 0.57265-0.19088 1.1453-0.19088z" fill="#BBAD8A"/>
<path d="m31.209 37.23c0.31496 0.06299 0.62992 0.12598 0.95442 0.19088-0.06299 0.25197-0.12598 0.50394-0.19088 0.76354h-0.95442c0.06299-0.31496 0.12598-0.62992 0.19088-0.95442z" fill="#8C8D8B"/>
<path d="m32.545 40.285c0.40468 0.07254 0.40468 0.07254 0.76354 0.19088v0.76354c-0.31496 0.06299-0.62992 0.12598-0.95442 0.19088-0.11835-0.35886-0.11835-0.35886-0.19088-0.76354l0.38177-0.38177z" fill="#7A7A79"/>
<path d="m29.491 34.749c0.06299 0.12598 0.12598 0.25197 0.19088 0.38177 0.18134-0.04009 0.36268-0.07826 0.54975-0.11835 0.29396-0.03627 0.29396-0.03627 0.59556-0.07254l0.38177 0.38177c-0.14889 0.05536-0.29969 0.11071-0.45431 0.16798-0.51921 0.18516-0.51921 0.18516-0.88189 0.59556-0.27869-0.50584-0.38177-0.74254-0.38177-1.3362z" fill="#F7F6F6"/>
<path d="m29.682-0.37389h1.5271v0.95442c-0.18898 0.06299-0.37795 0.12598-0.57265 0.19088-0.05154-0.11835-0.10308-0.2367-0.15462-0.35886-0.21952-0.46194-0.21952-0.46194-0.79981-0.78644z" fill="#B0ACBF"/>
<path d="m36.172 47.729c-0.06299 0.25197-0.12598 0.50394-0.19088 0.76354h-0.95442v-0.76354c0.4753-0.23861 0.65092-0.14889 1.1453 0z" fill="#818280"/>
<path d="m42.471 8.025c0.38177 0.57265 0.38177 0.57265 0.38177 0.95442h0.38177c0.06299 0.25197 0.12598 0.50394 0.19088 0.76354h-1.1453c0.06299-0.56693 0.12598-1.1338 0.19088-1.718z" fill="#889DC0"/>
<path d="m43.998 6.3071c-0.06299 0.25197-0.12598 0.50394-0.19088 0.76354-0.25197 0.06299-0.50394 0.12598-0.76354 0.19088-0.06299-0.31496-0.12598-0.62992-0.19088-0.95442 0.71582-0.21379 0.71582-0.21379 1.1453 0z" fill="#7B8279"/>
<path d="m34.454 43.339c-0.06299 0.25197-0.12598 0.50394-0.19088 0.76354h-0.57265c-0.18898 0.09544-0.18898 0.09544-0.38177 0.19088v-0.95442c0.4753-0.23861 0.65092-0.14889 1.1453 0z" fill="#6B6C6A"/>
<path d="m32.545 38.567c-0.06299 0.25197-0.12598 0.50394-0.19088 0.76354h-0.38177v-0.57265h-0.38177c0.06299 0.25197 0.12598 0.50394 0.19088 0.76354-0.12598-0.06299-0.25197-0.12598-0.38177-0.19088v-0.76354c0.4753-0.23861 0.65092-0.14889 1.1453 0z" fill="#626261"/>
<path d="m13.075 31.313c0.47721 0.22715 0.47721 0.22715 0.95442 0.57265 0.05917 0.51348 0.05917 0.51348 0 0.95442h-0.38177v-0.76354h-0.38177c-0.06299 0.25197-0.12598 0.50394-0.19088 0.76354v-1.5271z" fill="#AB956A"/>
<path d="m12.693 28.259h0.19088c0.03436 0.86852 0 1.5042-0.38177 2.2906h-0.57265v-0.76354c0.18898-0.12598 0.37795-0.25197 0.57265-0.38177 0.13935-0.58602 0.13935-0.58602 0.19088-1.1453z" fill="#764E0D"/>
<path d="m10.594 28.259h0.19088c0.05536 0.2157 0.11071 0.43331 0.16798 0.65664 0.07063 0.22333 0.14125 0.44858 0.21379 0.67955 0.12598 0.06299 0.25197 0.12598 0.38177 0.19088v0.76354h-0.57265c-0.38177-0.78644-0.41613-1.4221-0.38177-2.2906z" fill="#764E0D"/>
<path d="m41.517 2.2985c0.18898 0.06299 0.37795 0.12598 0.57265 0.19088v0.76354h-0.57265c-0.18898 0.09544-0.18898 0.09544-0.38177 0.19088-0.06299-0.25197-0.12598-0.50394-0.19088-0.76354 0.18898-0.12598 0.37795-0.25197 0.57265-0.38177z" fill="#70766E"/>
<path d="m41.326 2.6803c0.16607 0.08781 0.16607 0.08781 0.33405 0.17943 0.39895 0.18898 0.76354 0.3016 1.193 0.39322-0.18134 0.0859-0.36268 0.1737-0.54975 0.26342-0.59556 0.27106-0.59556 0.27106-0.97733 0.691v-0.57265h-0.38177c0.06299-0.12598 0.12598-0.25197 0.19088-0.38177 0.06299-0.18898 0.12598-0.37795 0.19088-0.57265z" fill="#CEDDC7"/>
<path d="m39.99-0.37389c0.39322 0.08399 0.39322 0.08399 0.76354 0.19088-0.06299 0.25197-0.12598 0.50394-0.19088 0.76354h-0.38177v-0.38177h-0.38177c-0.06299 0.12598-0.12598 0.25197-0.19088 0.38177 0.16798-0.74063 0.16798-0.74063 0.38177-0.95442z" fill="#70766E"/>
<path d="m31.209 36.276v0.57265c-0.18898 0.09544-0.18898 0.09544-0.38177 0.19088 0.06299 0.18898 0.12598 0.37795 0.19088 0.57265l-0.38177 0.38177c-0.12598-0.44094-0.25197-0.88189-0.38177-1.3362 0.31496-0.12598 0.62992-0.25197 0.95442-0.38177z" fill="#F9F9F8"/>
<path d="m34.263 46.393c0.06299 0.12598 0.12598 0.25197 0.19088 0.38177h0.57265v0.38177c0.25197 0.06299 0.50394 0.12598 0.76354 0.19088-0.50394 0.06299-1.0079 0.12598-1.5271 0.19088v-1.1453z" fill="#9D9D9C"/>
<path d="m11.357 28.641c0.25197 0.06299 0.50394 0.12598 0.76354 0.19088v0.76354h-0.76354v-0.95442z" fill="#774F0F"/>
<path d="m32.736 42.384c0.44094 0.06299 0.88189 0.12598 1.3362 0.19088v0.38177c-0.37795 0.06299-0.7559 0.12598-1.1453 0.19088-0.06299-0.25197-0.12598-0.50394-0.19088-0.76354z" fill="#9E9E9D"/>
  <g stroke="null">
   <path stroke="null" id="svg_2" d="m24,36.84375a12.84375,12.84375 0 1 0 -12.84375,-12.84375a12.84375,12.84375 0 0 0 12.84375,12.84375" fill="#e6000d" fill-rule="evenodd"/>
   <path stroke="null" id="svg_3" d="m24,34.34635a10.34635,10.34635 0 1 0 -10.34635,-10.34635a10.34635,10.34635 0 0 0 10.34635,10.34635" fill-rule="evenodd" fill="#fff"/>
  </g>
</svg>
