<svg width="48" height="48" xmlns="http://www.w3.org/2000/svg" version="1.1">
    <g>
        <path fill="#CADBBE"
            d="m-0.2868,-0.37389c16.12593,0 32.25186,0 48.86645,0c0,16.12593 0,32.25186 0,48.86645c-16.12593,0 -32.25186,0 -48.86645,0c0,-16.12593 0,-32.25186 0,-48.86645z" />
        <path fill="#AAD2DE"
            d="m18.99255,-0.37389c9.76375,0 19.52749,0 29.58711,0c0,16.12593 0,32.25186 0,48.86645c-2.96062,0 -5.92124,0 -8.97157,0c-1.24075,-3.67453 -1.24075,-3.67453 -1.62061,-4.80647c-0.78263,-2.31352 -1.64733,-4.58123 -2.57885,-6.83749c-0.08399,-0.20616 -0.16989,-0.41231 -0.25579,-0.62419c-0.20806,-0.50012 -0.41613,-1.00024 -0.6261,-1.49844c-0.77499,-1.85158 -1.54044,-3.70507 -2.30398,-5.56047c-1.07468,-2.61703 -2.16081,-5.23215 -3.25267,-7.84345c-0.58792,-1.40682 -1.17012,-2.81746 -1.73896,-4.23191c-0.64519,-1.60725 -1.34383,-3.16296 -2.13791,-4.70149c-0.39895,-0.7769 -0.76926,-1.56716 -1.13767,-2.35933c-0.48866,-1.04987 -0.9926,-2.09209 -1.51562,-3.12669c-0.57074,-1.13385 -1.12622,-2.27534 -1.67024,-3.42256c-0.06681,-0.14316 -0.13553,-0.28824 -0.20616,-0.43522c-0.53448,-1.13576 -1.05177,-2.27725 -1.57098,-3.41874z" />
        <path fill="#CCE8B1"
            d="m12.31159,-0.37389c2.20472,0 4.40943,0 6.68096,0c1.12622,2.06155 2.15318,4.14983 3.13242,6.28201c0.6681,1.45263 1.34574,2.89381 2.06919,4.31972c0.65283,1.28656 1.26175,2.59221 1.87067,3.89977c0.1718,0.36459 0.3455,0.72918 0.52111,1.09377c0.70818,1.48317 1.34001,2.98543 1.9432,4.51442c0.41231,1.04032 0.83417,2.07682 1.27129,3.10569c0.79026,1.85922 1.55762,3.72798 2.32497,5.59483c0.6471,1.5748 1.29611,3.1496 1.95275,4.72058c0.30732,0.733 0.61274,1.46599 0.91625,2.19899c0.14889,0.35886 0.29778,0.71773 0.44858,1.07468c1.13767,2.70674 2.11691,5.44975 3.0427,8.23285c0.05727,0.16798 0.11262,0.33596 0.1718,0.50966c0.15843,0.47912 0.31687,0.96015 0.4753,1.43927c0.04772,0.14698 0.09544,0.29205 0.14507,0.44285c0.33023,1.00978 0.33023,1.00978 0.33023,1.43736c-1.19685,0 -2.39369,0 -3.62681,0c0.06299,-0.25197 0.12598,-0.50394 0.19088,-0.76354c-0.85516,0.0859 -0.85516,0.0859 -1.52708,0.57265c-0.09544,-0.47339 -0.09544,-0.47339 -0.19088,-0.95442c0.15271,-0.0859 0.30732,-0.1737 0.46576,-0.26342c0.50584,-0.26151 0.50584,-0.26151 0.67955,-0.691c-0.18898,-0.06299 -0.37795,-0.12598 -0.57265,-0.19088c0.06299,-0.12598 0.12598,-0.25197 0.19088,-0.38177c-0.06299,-0.18898 -0.12598,-0.37795 -0.19088,-0.57265c-0.18898,-0.06299 -0.37795,-0.12598 -0.57265,-0.19088c-0.06299,0.25197 -0.12598,0.50394 -0.19088,0.76354c0.12598,0.06299 0.25197,0.12598 0.38177,0.19088c0.06299,-0.25197 0.12598,-0.50394 0.19088,-0.76354c0.06299,0.25197 0.12598,0.50394 0.19088,0.76354c-0.18325,0.07635 -0.18325,0.07635 -0.37032,0.15462c-0.45621,0.20616 -0.45621,0.20616 -0.58411,0.79981c-0.09735,-0.24242 -0.19088,-0.48485 -0.28633,-0.72727c-0.05345,-0.13553 -0.1069,-0.27106 -0.16034,-0.4104c-0.12598,-0.3894 -0.12598,-0.3894 -0.12598,-0.96206c0.37795,-0.06299 0.7559,-0.12598 1.14531,-0.19088c-0.25197,-0.06299 -0.50394,-0.12598 -0.76354,-0.19088c0,-0.12598 0,-0.25197 0,-0.38177c0.12598,-0.06299 0.25197,-0.12598 0.38177,-0.19088c0,-0.18898 0,-0.37795 0,-0.57265c-0.75018,0.1088 -0.75018,0.1088 -1.33619,0.57265c-0.19279,-0.46576 -0.38368,-0.92961 -0.57265,-1.39537c-0.05536,-0.13171 -0.1088,-0.26342 -0.16607,-0.39895c-0.23288,-0.57647 -0.40658,-1.01551 -0.40658,-1.64161c0.12598,0 0.25197,0 0.38177,0c-0.06299,-0.18898 -0.12598,-0.37795 -0.19088,-0.57265c0.18898,0 0.37795,0 0.57265,0c-0.18325,-0.07063 -0.18325,-0.07063 -0.37032,-0.14316c-0.39322,-0.23861 -0.39322,-0.23861 -0.53639,-0.64328c-0.01527,-0.11835 -0.03245,-0.2367 -0.04772,-0.35886c0.12598,0 0.25197,0 0.38177,0c0,0.18898 0,0.37795 0,0.57265c0.12598,-0.06299 0.25197,-0.12598 0.38177,-0.19088c0,-0.18898 0,-0.37795 0,-0.57265c-0.31496,0 -0.62992,0 -0.95442,0c0.09544,0.47339 0.09544,0.47339 0.19088,0.95442c-0.12598,0 -0.25197,0 -0.38177,0c-0.09544,-0.66237 -0.09544,-0.66237 -0.19088,-1.33619c0.31496,-0.06299 0.62992,-0.12598 0.95442,-0.19088c0,-0.18898 0,-0.37795 0,-0.57265c-0.75018,0.1088 -0.75018,0.1088 -1.33619,0.57265c-0.18898,-0.66237 -0.18898,-0.66237 -0.38177,-1.33619c0.31496,-0.12598 0.62992,-0.25197 0.95442,-0.38177c0,-0.31496 0,-0.62992 0,-0.95442c-0.55738,0.20425 -0.91243,0.33977 -1.33619,0.76354c-0.92197,-2.0062 -1.84394,-4.0143 -2.75637,-6.02623c-0.05536,-0.12407 -0.11071,-0.24624 -0.16798,-0.37413c-0.11644,-0.25388 -0.23097,-0.50775 -0.34741,-0.76163c-0.0859,-0.19279 -0.0859,-0.19279 -0.17561,-0.3894c-0.05917,-0.13171 -0.11835,-0.26151 -0.17943,-0.39704c-0.71963,-1.58434 -1.44309,-3.16868 -2.17608,-4.74921c-0.1069,-0.22906 -0.1069,-0.22906 -0.2157,-0.46385c-0.14316,-0.31114 -0.28824,-0.62419 -0.43331,-0.93533c-0.07063,-0.15462 -0.14316,-0.31114 -0.21761,-0.46958c-0.07063,-0.15462 -0.14316,-0.31114 -0.21761,-0.46958c-1.00214,-2.16654 -1.9852,-4.33881 -2.95108,-6.52062c-0.37604,-0.85135 -0.75399,-1.70269 -1.13195,-2.55213c-0.24433,-0.54975 -0.48866,-1.0995 -0.72918,-1.65115c-1.20257,-2.74874 -2.76783,-5.2646 -4.34644,-7.80909c-0.71963,-1.1644 -0.71963,-1.1644 -1.04223,-1.68933c-0.09162,-0.1508 -0.18325,-0.29969 -0.27869,-0.45431c-0.1947,-0.36459 -0.1947,-0.36459 -0.1947,-0.74636z" />
        <path fill="#ACD09D"
            d="m8.30301,7.2615c0.58411,0.1947 0.75781,0.37413 1.08422,0.9067c0.11453,0.23288 0.22524,0.46767 0.33596,0.70436c0.06108,0.12789 0.12407,0.25579 0.18707,0.3894c0.14316,0.29778 0.28633,0.59747 0.42758,0.89716c0.29969,0.63183 0.6032,1.25984 0.9067,1.88785c0.61274,1.26747 1.22166,2.53495 1.83058,3.80433c0.59174,0 0.92006,-0.34168 1.40109,-0.67573c0.20234,-0.13744 0.40658,-0.27678 0.61465,-0.41995c0.32259,-0.22143 0.64519,-0.44476 0.96778,-0.6681c0.31114,-0.2157 0.62228,-0.42758 0.93533,-0.64137c0.18516,-0.12789 0.37222,-0.25769 0.56502,-0.3894c0.15843,-0.0859 0.31687,-0.1718 0.47912,-0.2596c0.28251,0.09544 0.28251,0.09544 0.57265,0.19088c0.13744,0.37795 0.26342,0.76163 0.38177,1.14531c0.29014,0.5822 0.58792,1.15676 0.89716,1.72751c0.16034,0.30923 0.3016,0.6261 0.43903,0.94488c-0.26151,0.78263 -0.59747,0.83607 -1.32665,1.20066c-0.11644,0.05917 -0.23288,0.11835 -0.35123,0.17943c-0.37413,0.19088 -0.75018,0.37795 -1.12622,0.56502c-0.48676,0.24433 -0.9716,0.48866 -1.45645,0.73491c-0.12217,0.06108 -0.24242,0.12407 -0.36841,0.18707c-1.78286,0.91052 -3.539,1.89167 -5.19015,3.02743c-0.24051,0.16225 -0.48294,0.32641 -0.72345,0.49057c-0.12026,0.08017 -0.23861,0.16225 -0.36268,0.24624c-0.3455,0.23288 -0.69673,0.46385 -1.04605,0.69291c-2.13027,1.39155 -4.1861,2.88617 -6.20184,4.43807c-0.12789,0.09735 -0.25579,0.1947 -0.3875,0.29587c-0.11071,0.0859 -0.22143,0.1718 -0.33596,0.2596c-0.55738,0.3875 -1.14722,0.70818 -1.73896,1.04414c-0.0439,-1.98711 -0.07826,-3.97231 -0.09926,-5.95942c-0.00954,-0.92197 -0.02291,-1.84394 -0.0439,-2.76592c-0.021,-0.89143 -0.03245,-1.78286 -0.03818,-2.67429c-0.00382,-0.33977 -0.00954,-0.67764 -0.021,-1.01741c-0.07635,-2.6533 -0.07635,-2.6533 0.62037,-3.62872c0.4753,-0.43331 0.9487,-0.78835 1.49081,-1.13385c0.18898,-0.16034 0.37795,-0.31878 0.57265,-0.48294c0.15271,-0.12407 0.30732,-0.24815 0.46576,-0.37604c0.17561,-0.14316 0.34932,-0.28442 0.53066,-0.4314c0.34932,-0.2806 0.69864,-0.56311 1.04987,-0.84371c1.40491,-1.13385 2.78501,-2.31543 4.06202,-3.59245z" />
        <path fill="#FEFEE2"
            d="m20.19722,17.39586c0.99642,0.53639 1.46027,2.33834 1.84394,3.32139c0.39131,1.00787 0.39131,1.00787 0.90098,1.95848c0.30351,0.52111 0.35505,0.98306 0.44094,1.5748c-0.66046,0.25579 -1.32092,0.50966 -1.98138,0.76354c-0.18707,0.07254 -0.37604,0.14507 -0.56884,0.21952c-0.17943,0.07063 -0.35886,0.13935 -0.54402,0.20997c-0.16607,0.06299 -0.33214,0.12789 -0.50394,0.19279c-0.4104,0.14125 -0.4104,0.14125 -0.79217,0.14125c0.25197,0.7559 0.50394,1.51181 0.76354,2.29061c-0.37795,0.12598 -0.7559,0.25197 -1.14531,0.38177c0.04199,0.10308 0.08208,0.20616 0.12598,0.31305c0.05154,0.13744 0.10499,0.27296 0.16034,0.41422c0.05345,0.13553 0.1069,0.27106 0.16034,0.4104c0.12598,0.3894 0.12598,0.3894 0.12598,0.96206c-0.7769,0.33787 -1.55571,0.6681 -2.33834,0.99069c-0.15843,0.0649 -0.31687,0.1298 -0.48103,0.19852c-0.42567,0.14698 -0.42567,0.14698 -0.99833,0.14698c0,0.31496 0,0.62992 0,0.95442c0.66046,-0.09544 0.66046,-0.09544 1.33619,-0.19088c0,0.12598 0,0.25197 0,0.38177c-0.7559,0 -1.51181,0 -2.29061,0c0.25197,-0.06299 0.50394,-0.12598 0.76354,-0.19088c0,-0.31496 0,-0.62992 0,-0.95442c-0.37795,0.31496 -0.7559,0.62992 -1.14531,0.95442c-0.06299,-0.31496 -0.12598,-0.62992 -0.19088,-0.95442c-0.18898,0 -0.37795,0 -0.57265,0c-0.06299,0.31496 -0.12598,0.62992 -0.19088,0.95442c-0.06299,0 -0.12598,0 -0.19088,0c0,-0.50394 0,-1.00787 0,-1.52708c-0.12598,0 -0.25197,0 -0.38177,0c0,0.12598 0,0.25197 0,0.38177c-0.40658,0.22715 -0.40658,0.22715 -0.95442,0.38177c-0.62037,-0.20234 -0.62037,-0.20234 -1.14531,-0.57265c-0.12789,-0.50012 -0.12789,-0.50012 -0.19088,-0.95442c-0.40277,0.1069 -0.80362,0.21952 -1.20448,0.33405c-0.22524,0.06108 -0.44858,0.12407 -0.67764,0.18707c-0.6261,0.25388 -0.83798,0.4314 -1.17203,1.00596c0,-0.18898 0,-0.37795 0,-0.57265c-0.20616,0.07444 -0.4104,0.1508 -0.62228,0.22715c-0.75972,0.27869 -1.52135,0.55547 -2.28298,0.83226c-0.32832,0.12026 -0.65855,0.24051 -0.98687,0.36077c-0.47339,0.1737 -0.94679,0.3455 -1.42018,0.5173c-0.22143,0.08208 -0.22143,0.08208 -0.44667,0.16607c-0.58602,0.20997 -1.0575,0.37795 -1.68551,0.37795c-0.42185,-3.17823 -0.42185,-3.17823 0.22143,-4.15556c0.61083,-0.58411 1.34383,-0.9716 2.08446,-1.36482c0.57456,-0.3245 1.0575,-0.72345 1.57098,-1.13767c2.59985,-2.02719 5.34095,-3.83487 8.14886,-5.55856c0.13935,-0.0859 0.27869,-0.1737 0.42185,-0.26151c1.37246,-0.83798 2.78119,-1.60725 4.19946,-2.36697c0.27678,-0.1508 0.55547,-0.3016 0.83226,-0.4524c0.40658,-0.22143 0.81317,-0.44094 1.21975,-0.65855c0.18516,-0.10308 0.18516,-0.10308 0.37413,-0.20806c0.48676,-0.25579 0.85516,-0.44858 1.41064,-0.42567z" />
        <path fill="#ACCEA1"
            d="m36.17216,-0.37389c4.09447,0 8.18895,0 12.4075,0c0,3.84251 0,7.68501 0,11.64396c-2.86327,1.52708 -2.86327,1.52708 -3.81769,1.71796c0,0.12598 0,0.25197 0,0.38177c-1.07277,0.57265 -1.07277,0.57265 -1.71796,0.57265c-1.07659,-2.13218 -2.13982,-4.27009 -3.16105,-6.4309c-0.73109,-1.54426 -1.49653,-3.06561 -2.30779,-4.56787c-1.403,-2.60939 -1.403,-2.60939 -1.403,-3.31757z" />
        <path fill="#FDFDFD"
            d="m12.31159,-0.37389c0.86089,-0.13553 1.62443,-0.17943 2.4815,0c0.69291,0.62037 1.06323,1.37246 1.47936,2.19517c0.11071,0.20234 0.22143,0.40468 0.33596,0.61274c0.23288,0.42376 0.46003,0.84944 0.68337,1.27893c0.31687,0.60129 0.65092,1.18921 0.99069,1.77714c1.01551,1.76759 1.88212,3.59054 2.72583,5.44594c0.14889,0.32641 0.29969,0.65092 0.44858,0.97733c1.05368,2.30207 2.08255,4.61368 3.10378,6.92911c0.97351,2.20472 1.98138,4.38844 3.01216,6.56643c0.95061,2.01001 1.84967,4.03339 2.68193,6.09494c-0.11644,0.02672 -0.23479,0.05154 -0.35505,0.07826c-0.50012,0.13744 -0.79408,0.33405 -1.17203,0.68528c0,0.18898 0,0.37795 0,0.57265c-0.12598,0 -0.25197,0 -0.38177,0c-0.13744,-0.31114 -0.13744,-0.31114 -0.27678,-0.62801c-0.86662,-1.96038 -1.75614,-3.91122 -2.65902,-5.85443c-1.13958,-2.45478 -2.2658,-4.91528 -3.35766,-7.39296c-0.50394,-1.13958 -1.01169,-2.27916 -1.51944,-3.41874c-0.13935,-0.31305 -0.27869,-0.6261 -0.41804,-0.93915c-1.87449,-4.21664 -3.81578,-8.27485 -6.31828,-12.15935c-0.33977,-0.53066 -0.67573,-1.06704 -1.00405,-1.60534c-0.09353,-0.1508 -0.18707,-0.30351 -0.28251,-0.46003c-0.19852,-0.37413 -0.19852,-0.37413 -0.19852,-0.7559z" />
        <path fill="#C6F5CD"
            d="m48.57965,11.27007c0,4.97636 0,9.95272 0,15.07988c-0.41231,-0.54975 -0.66046,-0.89716 -0.91434,-1.50035c-0.06108,-0.14125 -0.12217,-0.28442 -0.18325,-0.4314c-0.0649,-0.15271 -0.12789,-0.30542 -0.1947,-0.46194c-0.06681,-0.16034 -0.13553,-0.32259 -0.20616,-0.48676c-0.21761,-0.51539 -0.43331,-1.03078 -0.64901,-1.54616c-0.14316,-0.33596 -0.28442,-0.67382 -0.42758,-1.00978c-0.41613,-0.98687 -0.83035,-1.97375 -1.24266,-2.96253c-0.06681,-0.15843 -0.13171,-0.31496 -0.20043,-0.47912c-0.18707,-0.44667 -0.37413,-0.89525 -0.55929,-1.34383c-0.05727,-0.13362 -0.11262,-0.26533 -0.16989,-0.40277c-0.24242,-0.58792 -0.47148,-1.15867 -0.59747,-1.78286c1.09759,-0.57265 1.09759,-0.57265 1.52708,-0.57265c-0.06299,-0.18898 -0.12598,-0.37795 -0.19088,-0.57265c0.12598,0 0.25197,0 0.38177,0c0.06299,-0.12598 0.12598,-0.25197 0.19088,-0.38177c0,0.12598 0,0.25197 0,0.38177c0.2157,-0.11071 0.4314,-0.22143 0.65473,-0.33405c0.28251,-0.14316 0.56502,-0.28633 0.84944,-0.42949c0.14125,-0.07254 0.28442,-0.14507 0.4314,-0.22143c0.13553,-0.06872 0.27296,-0.13744 0.41231,-0.20806c0.12598,-0.0649 0.25197,-0.12789 0.38177,-0.1947c0.3245,-0.13935 0.3245,-0.13935 0.70627,-0.13935z" />
        <path fill="#F1EEE8"
            d="m0.47674,2.48938c0.42567,0.39322 0.69864,0.7559 0.95633,1.2732c0.06872,0.13935 0.13935,0.27869 0.20997,0.42185c0.07254,0.14889 0.14507,0.29778 0.22143,0.4524c0.07444,0.15271 0.1508,0.30732 0.22906,0.46576c0.16034,0.32641 0.31878,0.65283 0.47721,0.97733c0.24433,0.50012 0.49057,0.99833 0.73872,1.49463c0.15462,0.31687 0.30923,0.63374 0.46385,0.95061c0.11071,0.22333 0.11071,0.22333 0.22524,0.45049c0.06681,0.13935 0.13362,0.27869 0.20234,0.42376c0.05917,0.12217 0.11835,0.24433 0.18134,0.36841c0.1298,0.45049 0.08017,0.68528 -0.08781,1.12049c-0.33405,0.35505 -0.66046,0.67191 -1.02696,0.99069c-0.10117,0.08972 -0.20234,0.18134 -0.30732,0.27487c-2.87472,2.55213 -2.87472,2.55213 -3.24695,2.55213c-0.01718,-1.50799 -0.03054,-3.01598 -0.04009,-4.52396c-0.00382,-0.70055 -0.00954,-1.40109 -0.01718,-2.10164c-0.00954,-0.67573 -0.01336,-1.35146 -0.01527,-2.02719c-0.00191,-0.38368 -0.00764,-0.76736 -0.01336,-1.15103c0,-0.23288 0,-0.46576 0,-0.70627c-0.00191,-0.20616 -0.00382,-0.4104 -0.00573,-0.62228c0.09162,-0.51157 0.09162,-0.51157 0.47912,-0.86852c0.12407,-0.07063 0.24815,-0.14316 0.37604,-0.2157z" />
        <path fill="#C9E2B3"
            d="m28.155,31.88561c0.22333,0.37222 0.22333,0.37222 0.4314,0.85325c0.11453,0.25769 0.11453,0.25769 0.22906,0.52111c0.07826,0.17943 0.15462,0.36077 0.23479,0.54593c0.07826,0.18134 0.15843,0.36268 0.24051,0.54975c0.1947,0.44858 0.3894,0.89716 0.5822,1.34765c0.44094,-0.12598 0.88189,-0.25197 1.33619,-0.38177c0.06299,0.31496 0.12598,0.62992 0.19088,0.95442c-0.47148,0.28442 -0.47148,0.28442 -0.95442,0.57265c0.12598,0.25197 0.25197,0.50394 0.38177,0.76354c0.12598,-0.12598 0.25197,-0.25197 0.38177,-0.38177c0.50012,0.07254 0.50012,0.07254 0.95442,0.19088c-0.06299,0.25197 -0.12598,0.50394 -0.19088,0.76354c-0.31496,0 -0.62992,0 -0.95442,0c0.06299,0.44094 0.12598,0.88189 0.19088,1.33619c0.06299,-0.31496 0.12598,-0.62992 0.19088,-0.95442c0.47148,-0.09544 0.47148,-0.09544 0.95442,-0.19088c0.06299,0.25197 0.12598,0.50394 0.19088,0.76354c-0.28442,0.09544 -0.28442,0.09544 -0.57265,0.19088c0,-0.18898 0,-0.37795 0,-0.57265c-0.12598,0 -0.25197,0 -0.38177,0c0.12598,0.25197 0.25197,0.50394 0.38177,0.76354c0.25197,0 0.50394,0 0.76354,0c0.06299,0.18898 0.12598,0.37795 0.19088,0.57265c-0.25197,0 -0.50394,0 -0.76354,0c0,0.12598 0,0.25197 0,0.38177c-0.12598,0 -0.25197,0 -0.38177,0c0.37795,1.00787 0.7559,2.01574 1.14531,3.05415c0.25197,-0.12598 0.50394,-0.25197 0.76354,-0.38177c0.42949,0.07254 0.42949,0.07254 0.76354,0.19088c-0.16798,0.74063 -0.16798,0.74063 -0.38177,0.95442c0.25197,0.06299 0.50394,0.12598 0.76354,0.19088c-0.06299,0.12598 -0.12598,0.25197 -0.19088,0.38177c-0.37795,0 -0.7559,0 -1.14531,0c0.18898,0.50394 0.37795,1.00787 0.57265,1.52708c0.37795,-0.18898 0.37795,-0.18898 0.76354,-0.38177c0,-0.12598 0,-0.25197 0,-0.38177c-0.06299,0.12598 -0.12598,0.25197 -0.19088,0.38177c-0.25197,-0.06299 -0.50394,-0.12598 -0.76354,-0.19088c0.09544,-0.28442 0.09544,-0.28442 0.19088,-0.57265c0.06299,0.12598 0.12598,0.25197 0.19088,0.38177c0.09544,-0.28442 0.09544,-0.28442 0.19088,-0.57265c0.25197,0.06299 0.50394,0.12598 0.76354,0.19088c0.1069,0.37032 0.1069,0.37032 0.19088,0.76354c-0.06299,0.06299 -0.12598,0.12598 -0.19088,0.19088c0.18898,0.09544 0.18898,0.09544 0.38177,0.19088c-0.09544,0.28442 -0.09544,0.28442 -0.19088,0.57265c0.18898,0.18898 0.18898,0.18898 0.38177,0.38177c-0.44094,0 -0.88189,0 -1.33619,0c0.18898,0.28442 0.18898,0.28442 0.38177,0.57265c0.14889,-0.06681 0.29969,-0.13362 0.45431,-0.20234c0.16416,-0.05917 0.33023,-0.11835 0.50012,-0.17943c0.18898,0.09544 0.18898,0.09544 0.38177,0.19088c-0.09544,0.37795 -0.09544,0.37795 -0.19088,0.76354c-0.81889,0 -1.63779,0 -2.4815,0c-0.0859,-0.22143 -0.16989,-0.44285 -0.2596,-0.67191c-0.11644,-0.29969 -0.23288,-0.60129 -0.34932,-0.90288c-0.08399,-0.21761 -0.08399,-0.21761 -0.16798,-0.43903c-0.39704,-1.02505 -0.81508,-2.03865 -1.24075,-3.05415c-0.31687,-0.76354 -0.62801,-1.53089 -0.93915,-2.30016c-0.05917,-0.14507 -0.11644,-0.29014 -0.17752,-0.43903c-0.12217,-0.3016 -0.24433,-0.6032 -0.36459,-0.90479c-1.04223,-2.57694 -2.08828,-5.15007 -3.18205,-7.7041c0.691,-0.40468 0.691,-0.40468 1.33619,-0.19088z" />
        <path fill="#E4E4E3"
            d="m29.68208,31.31295c0.25197,0.12598 0.50394,0.25197 0.76354,0.38177c0,0.12598 0,0.25197 0,0.38177c0.12598,0 0.25197,0 0.38177,0c0.08399,0.24242 0.08399,0.24242 0.16798,0.49057c0.07826,0.22333 0.15653,0.44858 0.2367,0.67764c0.07635,0.21761 0.1508,0.43522 0.22906,0.65855c0.24433,0.66428 0.52111,1.31138 0.80553,1.96038c0.84562,1.95466 1.59579,3.94749 2.35742,5.93651c0.26151,0.68337 0.52302,1.36673 0.78644,2.04819c0.16798,0.43713 0.33405,0.87234 0.50203,1.30947c0.07826,0.20234 0.15653,0.40658 0.2367,0.61465c0.34359,0.90098 0.68337,1.80004 0.97733,2.72011c-0.37795,0 -0.7559,0 -1.14531,0c0.09544,-0.37795 0.09544,-0.37795 0.19088,-0.76354c-0.85516,0.0859 -0.85516,0.0859 -1.52708,0.57265c-0.06299,-0.31496 -0.12598,-0.62992 -0.19088,-0.95442c0.15271,-0.0859 0.30732,-0.1737 0.46576,-0.26342c0.50584,-0.26151 0.50584,-0.26151 0.67955,-0.691c-0.18898,-0.06299 -0.37795,-0.12598 -0.57265,-0.19088c0.06299,-0.12598 0.12598,-0.25197 0.19088,-0.38177c-0.06299,-0.18898 -0.12598,-0.37795 -0.19088,-0.57265c-0.18898,-0.06299 -0.37795,-0.12598 -0.57265,-0.19088c-0.06299,0.25197 -0.12598,0.50394 -0.19088,0.76354c0.12598,0.06299 0.25197,0.12598 0.38177,0.19088c0.09544,-0.37795 0.09544,-0.37795 0.19088,-0.76354c0.06299,0.25197 0.12598,0.50394 0.19088,0.76354c-0.18325,0.07635 -0.18325,0.07635 -0.37032,0.15462c-0.45621,0.20616 -0.45621,0.20616 -0.58411,0.79981c-0.09735,-0.24242 -0.19088,-0.48485 -0.28633,-0.72727c-0.05345,-0.13553 -0.1069,-0.27106 -0.16034,-0.4104c-0.12598,-0.3894 -0.12598,-0.3894 -0.12598,-0.96206c0.56693,-0.09544 0.56693,-0.09544 1.14531,-0.19088c-0.25197,-0.06299 -0.50394,-0.12598 -0.76354,-0.19088c0,-0.12598 0,-0.25197 0,-0.38177c0.18898,-0.09544 0.18898,-0.09544 0.38177,-0.19088c0,-0.18898 0,-0.37795 0,-0.57265c-0.75018,0.1088 -0.75018,0.1088 -1.33619,0.57265c-0.19279,-0.46576 -0.38368,-0.92961 -0.57265,-1.39537c-0.05536,-0.13171 -0.1088,-0.26342 -0.16607,-0.39895c-0.23288,-0.57647 -0.40658,-1.01551 -0.40658,-1.64161c0.12598,0 0.25197,0 0.38177,0c-0.06299,-0.18898 -0.12598,-0.37795 -0.19088,-0.57265c0.18898,0 0.37795,0 0.57265,0c-0.12217,-0.04772 -0.24433,-0.09544 -0.37032,-0.14316c-0.39322,-0.23861 -0.39322,-0.23861 -0.53639,-0.64328c-0.01527,-0.11835 -0.03054,-0.2367 -0.04772,-0.35886c0.12598,0 0.25197,0 0.38177,0c0,0.18898 0,0.37795 0,0.57265c0.18898,-0.09544 0.18898,-0.09544 0.38177,-0.19088c0,-0.18898 0,-0.37795 0,-0.57265c-0.31496,0 -0.62992,0 -0.95442,0c0.06299,0.31496 0.12598,0.62992 0.19088,0.95442c-0.12598,0 -0.25197,0 -0.38177,0c-0.06299,-0.44094 -0.12598,-0.88189 -0.19088,-1.33619c0.47148,-0.09544 0.47148,-0.09544 0.95442,-0.19088c0,-0.18898 0,-0.37795 0,-0.57265c-0.75018,0.1088 -0.75018,0.1088 -1.33619,0.57265c-0.12598,-0.44094 -0.25197,-0.88189 -0.38177,-1.33619c0.31496,-0.12598 0.62992,-0.25197 0.95442,-0.38177c0,-0.31496 0,-0.62992 0,-0.95442c-0.55738,0.20425 -0.91243,0.33977 -1.33619,0.76354c-0.22524,-0.45621 -0.44667,-0.91434 -0.6681,-1.37246c-0.06299,-0.12789 -0.12789,-0.25579 -0.19279,-0.3894c-0.61656,-1.29038 -0.61656,-1.29038 -0.4753,-2.05583c0.33405,-0.40277 0.71773,-0.64137 1.14531,-0.95442z" />
        <path fill="#F8F8F8"
            d="m33.49977,41.8116c-0.06299,0.18898 -0.12598,0.37795 -0.19088,0.57265c-0.18898,0 -0.37795,0 -0.57265,0c0,0.12598 0,0.25197 0,0.38177c0.76545,0.30542 1.34001,0.04199 2.09973,-0.19088c0.31114,0.77117 0.62037,1.54235 0.93152,2.31352c0.08781,0.21952 0.17561,0.43713 0.26533,0.66237c0.08399,0.20997 0.16989,0.42185 0.25769,0.64137c0.07826,0.19279 0.15462,0.3875 0.23479,0.58602c0.21952,0.56693 0.41422,1.13767 0.60129,1.71414c-0.37795,0 -0.7559,0 -1.14531,0c0.06299,-0.25197 0.12598,-0.50394 0.19088,-0.76354c-0.85516,0.0859 -0.85516,0.0859 -1.52708,0.57265c-0.06299,-0.31496 -0.12598,-0.62992 -0.19088,-0.95442c0.15271,-0.0859 0.30732,-0.1737 0.46576,-0.26342c0.50584,-0.26151 0.50584,-0.26151 0.67955,-0.691c-0.18898,-0.06299 -0.37795,-0.12598 -0.57265,-0.19088c0.06299,-0.12598 0.12598,-0.25197 0.19088,-0.38177c-0.06299,-0.18898 -0.12598,-0.37795 -0.19088,-0.57265c-0.18898,-0.06299 -0.37795,-0.12598 -0.57265,-0.19088c-0.06299,0.25197 -0.12598,0.50394 -0.19088,0.76354c0.12598,0.06299 0.25197,0.12598 0.38177,0.19088c0.06299,-0.25197 0.12598,-0.50394 0.19088,-0.76354c0.06299,0.25197 0.12598,0.50394 0.19088,0.76354c-0.12217,0.05154 -0.24433,0.10308 -0.37032,0.15462c-0.45621,0.20616 -0.45621,0.20616 -0.58411,0.79981c-0.09735,-0.24242 -0.19088,-0.48485 -0.28633,-0.72727c-0.05345,-0.13553 -0.1069,-0.27106 -0.16034,-0.4104c-0.12598,-0.3894 -0.12598,-0.3894 -0.12598,-0.96206c0.37795,-0.06299 0.7559,-0.12598 1.14531,-0.19088c-0.25197,-0.06299 -0.50394,-0.12598 -0.76354,-0.19088c0,-0.12598 0,-0.25197 0,-0.38177c0.12598,-0.06299 0.25197,-0.12598 0.38177,-0.19088c0,-0.18898 0,-0.37795 0,-0.57265c-0.75018,0.1088 -0.75018,0.1088 -1.33619,0.57265c-0.18898,-0.62992 -0.37795,-1.25984 -0.57265,-1.90885c0.57265,-0.19088 0.57265,-0.19088 1.14531,-0.19088z" />
        <path fill="#D18392"
            d="m-0.2868,-0.37389c1.44881,0 2.89763,0 4.39035,0c-0.75018,0.75018 -1.47363,1.39346 -2.30207,2.04056c-0.17561,0.13935 -0.17561,0.13935 -0.35505,0.2806c-0.11262,0.08972 -0.22715,0.17752 -0.34359,0.26915c-0.15271,0.12026 -0.15271,0.12026 -0.30923,0.24242c-0.31687,0.22143 -0.31687,0.22143 -1.08041,0.6032c0,-1.13385 0,-2.26771 0,-3.43592z" />
        <path fill="#D2C7B8"
            d="m9.44832,30.54941c0.25197,0 0.50394,0 0.76354,0c0.0649,0.22524 0.0649,0.22524 0.13171,0.45431c0.20806,0.54211 0.20806,0.54211 0.75018,0.75018c0.22524,0.0649 0.22524,0.0649 0.45431,0.13171c0,0.31496 0,0.62992 0,0.95442c-0.06299,-0.25197 -0.12598,-0.50394 -0.19088,-0.76354c-0.12598,0 -0.25197,0 -0.38177,0c0,0.25197 0,0.50394 0,0.76354c-0.34932,-0.00573 -0.34932,-0.00573 -0.70436,-0.01145c-0.61656,-0.00191 -1.17585,0.05154 -1.77714,0.20234c0,-0.62992 0,-1.25984 0,-1.90885c0.31496,-0.06299 0.62992,-0.12598 0.95442,-0.19088c0,-0.12598 0,-0.25197 0,-0.38177z" />
        <path fill="#C4DBBC"
            d="m43.42577,5.16177c0.59747,0.96015 0.59747,0.96015 0.51348,1.59961c-0.0439,0.10117 -0.08781,0.20425 -0.13171,0.30923c-0.57456,0.17752 -0.73872,0.19852 -1.33619,0c0.06299,0.25197 0.12598,0.50394 0.19088,0.76354c-0.18898,0.06299 -0.37795,0.12598 -0.57265,0.19088c0,-0.38177 0,-0.76354 0,-1.14531c-0.18898,-0.06299 -0.37795,-0.12598 -0.57265,-0.19088c0.12598,0 0.25197,0 0.38177,0c-0.06299,-0.37795 -0.12598,-0.7559 -0.19088,-1.14531c1.07277,-0.59556 1.07277,-0.59556 1.71796,-0.38177z" />
        <path fill="#9CB1AA"
            d="m38.94073,-0.39253c0.28824,0.00382 0.28824,0.00382 0.58411,0.00764c0.19279,0 0.38559,0.00191 0.58411,0.00382c0.22524,0.00382 0.22524,0.00382 0.45431,0.00764c0.06299,0.25197 0.12598,0.50394 0.19088,0.76354c-0.18898,0.06299 -0.37795,0.12598 -0.57265,0.19088c0,-0.12598 0,-0.25197 0,-0.38177c-0.12598,0 -0.25197,0 -0.38177,0c0.12598,0.25197 0.25197,0.50394 0.38177,0.76354c0.31496,-0.12598 0.62992,-0.25197 0.95442,-0.38177c0.06299,0.18898 0.12598,0.37795 0.19088,0.57265c-0.14316,0.02291 -0.28442,0.04772 -0.42949,0.07063c-0.52302,0.08972 -0.52302,0.08972 -0.9067,0.35886c-0.12598,0.04772 -0.25197,0.09353 -0.38177,0.14316c-0.52493,-0.23861 -0.52493,-0.23861 -0.95442,-0.57265c0,-0.12598 0,-0.25197 0,-0.38177c0.12598,0 0.25197,0 0.38177,0c-0.06299,-0.12598 -0.12598,-0.25197 -0.19088,-0.38177c-0.18898,0.09353 -0.18898,0.09353 -0.38177,0.19088c-0.1088,-0.37032 -0.1088,-0.37032 -0.19088,-0.76354c0.19088,-0.19088 0.19088,-0.19088 0.6681,-0.20997z" />
        <path fill="#8CA196"
            d="m41.32604,1.34408c0.12598,0.25197 0.25197,0.50394 0.38177,0.76354c-0.25197,0.06299 -0.50394,0.12598 -0.76354,0.19088c0.18898,0 0.37795,0 0.57265,0c0.18898,0.06299 0.37795,0.12598 0.57265,0.19088c0,0.25197 0,0.50394 0,0.76354c-0.18898,0 -0.37795,0 -0.57265,0c-0.39131,0.35123 -0.39131,0.35123 -0.57265,0.76354c-0.93152,-0.50012 -0.93152,-0.50012 -1.14531,-1.14531c0.12598,0 0.25197,0 0.38177,0c0,-0.18898 0,-0.37795 0,-0.57265c0.12598,0 0.25197,0 0.38177,0c-0.06299,-0.18898 -0.12598,-0.37795 -0.19088,-0.57265c0.31496,0 0.62992,0 0.95442,0c0,-0.12598 0,-0.25197 0,-0.38177z" />
        <path fill="#9BBE8D"
            d="m42.47135,8.02504c0.38177,0.57265 0.38177,0.57265 0.38177,0.95442c0.12598,0 0.25197,0 0.38177,0c0.06299,0.25197 0.12598,0.50394 0.19088,0.76354c-0.12217,0.01909 -0.24433,0.04009 -0.37032,0.05917c-0.1298,0.0439 -0.2596,0.08781 -0.39322,0.13171c-0.06299,0.18898 -0.12598,0.37795 -0.19088,0.57265c0,-0.18898 0,-0.37795 0,-0.57265c-0.18898,-0.06299 -0.37795,-0.12598 -0.57265,-0.19088c-0.12598,0.25197 -0.25197,0.50394 -0.38177,0.76354c-0.35123,-0.72154 -0.41231,-1.13576 -0.19088,-1.90885c0.31496,0.06299 0.62992,0.12598 0.95442,0.19088c0.06299,-0.25197 0.12598,-0.50394 0.19088,-0.76354z" />
        <path fill="#BBA98B"
            d="m9.44832,30.54941c0.25197,0 0.50394,0 0.76354,0c0.0439,0.14889 0.0859,0.29969 0.13171,0.45431c0.20806,0.54211 0.20806,0.54211 0.75018,0.75018c0.22524,0.0649 0.22524,0.0649 0.45431,0.13171c0,0.31496 0,0.62992 0,0.95442c-0.06299,-0.25197 -0.12598,-0.50394 -0.19088,-0.76354c-0.12598,0 -0.25197,0 -0.38177,0c0,0.25197 0,0.50394 0,0.76354c-0.44094,0 -0.88189,0 -1.33619,0c0,-0.44094 0,-0.88189 0,-1.33619c0.18898,0 0.37795,0 0.57265,0c-0.05154,-0.37795 -0.05154,-0.37795 -0.19088,-0.76354c-0.18898,-0.06299 -0.37795,-0.12598 -0.57265,-0.19088z" />
        <path fill="#BABBB9"
            d="m14.79308,-0.37389c0.81889,0 1.63779,0 2.4815,0c-0.54402,0.55929 -1.0785,1.07659 -1.71796,1.52708c-0.76354,-1.09759 -0.76354,-1.09759 -0.76354,-1.52708z" />
        <path fill="#B8B8B6"
            d="m34.10822,43.21938c0.11453,0.04009 0.22906,0.07826 0.3455,0.11835c-0.16607,0.74063 -0.16607,0.74063 -0.38177,0.95442c0.25197,0.0649 0.50394,0.12598 0.76354,0.19088c-0.06299,0.12598 -0.12598,0.25197 -0.19088,0.38177c-0.44094,0 -0.88189,0 -1.33619,0c-0.06299,-0.44094 -0.12598,-0.88189 -0.19088,-1.33619c0.57265,-0.38177 0.57265,-0.38177 0.99069,-0.30923z" />
        <path fill="#C3DBBA"
            d="m41.13515,0.58054c0.18898,0.18898 0.37795,0.37795 0.57265,0.57265c-0.26533,0.53066 -0.6032,0.56884 -1.14531,0.76354c0,0.12598 0,0.25197 0,0.38177c-0.12598,0 -0.25197,0 -0.38177,0c0,0.18898 0,0.37795 0,0.57265c-0.18898,0.06299 -0.37795,0.12598 -0.57265,0.19088c-0.06299,-0.18898 -0.12598,-0.37795 -0.19088,-0.57265c0.12598,0 0.25197,0 0.38177,0c-0.06299,-0.25197 -0.12598,-0.50394 -0.19088,-0.76354c1.09759,-0.76354 1.09759,-0.76354 1.52708,-0.76354c0,-0.12598 0,-0.25197 0,-0.38177z" />
        <path fill="#8C8C8B"
            d="m28.91854,31.88561c0.28251,0.04772 0.56502,0.10117 0.84753,0.15462c0.23479,0.0439 0.23479,0.0439 0.4753,0.08781c0.13171,0.04581 0.26151,0.09162 0.39513,0.13935c0.06299,0.18898 0.12598,0.37795 0.19088,0.57265c-0.06299,0.12598 -0.12598,0.25197 -0.19088,0.38177c-0.39513,0.07826 -0.39513,0.07826 -0.87043,0.11835c-0.15843,0.01527 -0.31687,0.02863 -0.47912,0.0439c-0.18134,0.01527 -0.18134,0.01527 -0.36841,0.02863c0,-0.12598 0,-0.25197 0,-0.38177c0.18898,-0.12598 0.37795,-0.25197 0.57265,-0.38177c-0.31496,-0.06299 -0.62992,-0.12598 -0.95442,-0.19088c0.12598,-0.18898 0.25197,-0.37795 0.38177,-0.57265z" />
        <path fill="#979796"
            d="m32.54535,38.56657c-0.06299,0.25197 -0.12598,0.50394 -0.19088,0.76354c-0.12598,0 -0.25197,0 -0.38177,0c0,-0.18898 0,-0.37795 0,-0.57265c-0.12598,0 -0.25197,0 -0.38177,0c0.12598,0.25197 0.25197,0.50394 0.38177,0.76354c0.25197,0 0.50394,0 0.76354,0c0.06299,0.18898 0.12598,0.37795 0.19088,0.57265c-0.25197,0 -0.50394,0 -0.76354,0c0,0.12598 0,0.25197 0,0.38177c-0.18898,0 -0.37795,0 -0.57265,0c-0.11835,-0.65664 -0.19088,-1.23884 -0.19088,-1.90885c0.4753,-0.23861 0.65092,-0.14889 1.14531,0z" />
        <path fill="#9CB0E7"
            d="m46.47992,16.23307c0.12598,0 0.25197,0 0.38177,0c0.12598,0.31496 0.25197,0.62992 0.38177,0.95442c0.12598,0 0.25197,0 0.38177,0c0.13362,0.24051 0.26342,0.48485 0.39322,0.72727c0.07444,0.13553 0.14698,0.27106 0.22143,0.4104c0.14889,0.3894 0.14889,0.3894 -0.04199,0.96206c-0.06299,-0.18898 -0.12598,-0.37795 -0.19088,-0.57265c-0.12598,0 -0.25197,0 -0.38177,0c-0.49057,-0.81699 -0.87616,-1.55953 -1.14531,-2.4815z" />
        <path fill="#6A6B6A"
            d="m34.45419,45.05664c0.25197,0.06299 0.50394,0.12598 0.76354,0.19088c0.1069,0.37032 0.1069,0.37032 0.19088,0.76354c-0.06299,0.06299 -0.12598,0.12598 -0.19088,0.19088c0.12598,0.06299 0.25197,0.12598 0.38177,0.19088c-0.06299,0.18898 -0.12598,0.37795 -0.19088,0.57265c-0.31496,-0.06299 -0.62992,-0.12598 -0.95442,-0.19088c0.06299,-0.25197 0.12598,-0.50394 0.19088,-0.76354c-0.25197,-0.06299 -0.50394,-0.12598 -0.76354,-0.19088c0.06299,-0.18898 0.12598,-0.37795 0.19088,-0.57265c0.06299,0.12598 0.12598,0.25197 0.19088,0.38177c0.06299,-0.18898 0.12598,-0.37795 0.19088,-0.57265z" />
        <path fill="#636562"
            d="m33.69066,41.42983c0.21379,0.71582 0.21379,0.71582 0,1.14531c0.12598,0 0.25197,0 0.38177,0c0,0.12598 0,0.25197 0,0.38177c-0.37795,0.06299 -0.7559,0.12598 -1.14531,0.19088c-0.06299,-0.25197 -0.12598,-0.50394 -0.19088,-0.76354c0.18898,-0.06299 0.37795,-0.12598 0.57265,-0.19088c0.06299,-0.12598 0.12598,-0.25197 0.19088,-0.38177c-0.31496,0.06299 -0.62992,0.12598 -0.95442,0.19088c0.50012,-0.57265 0.50012,-0.57265 1.14531,-0.57265z" />
        <path fill="#C4B596"
            d="m12.50247,31.31295c0.12598,0 0.25197,0 0.38177,0c0,0.50394 0,1.00787 0,1.52708c-0.31496,0 -0.62992,0 -0.95442,0c-0.06299,-0.25197 -0.12598,-0.50394 -0.19088,-0.76354c0.25197,-0.12598 0.50394,-0.25197 0.76354,-0.38177c0,-0.12598 0,-0.25197 0,-0.38177z" />
        <path fill="#9C9D9B"
            d="m31.20916,35.32153c0.06299,0.31496 0.12598,0.62992 0.19088,0.95442c-0.9067,0.19088 -0.9067,0.19088 -1.33619,0.19088c0.06299,-0.31496 0.12598,-0.62992 0.19088,-0.95442c0.57265,-0.19088 0.57265,-0.19088 0.95442,-0.19088z" />
        <path fill="#7C8478"
            d="m43.42577,5.16177c-0.06299,0.31496 -0.12598,0.62992 -0.19088,0.95442c-0.64328,-0.10499 -0.96969,-0.20043 -1.52708,-0.57265c1.07277,-0.59556 1.07277,-0.59556 1.71796,-0.38177z" />
        <path fill="#B6B5B2"
            d="m22.23758,26.34995c0.25197,0 0.50394,0 0.76354,0c0,0.44094 0,0.88189 0,1.33619c-0.25197,0 -0.50394,0 -0.76354,0c-0.21379,-0.9067 -0.21379,-0.9067 0,-1.33619z" />
        <path fill="#BBAD8A"
            d="m16.51105,31.69472c-0.06299,0.12598 -0.12598,0.25197 -0.19088,0.38177c0.06299,0.06299 0.12598,0.12598 0.19088,0.19088c0,0.18898 0,0.37795 0,0.57265c-0.37795,0 -0.7559,0 -1.14531,0c0,-0.31496 0,-0.62992 0,-0.95442c0.57265,-0.19088 0.57265,-0.19088 1.14531,-0.19088z" />
        <path fill="#8C8D8B"
            d="m31.20916,37.23037c0.31496,0.06299 0.62992,0.12598 0.95442,0.19088c-0.06299,0.25197 -0.12598,0.50394 -0.19088,0.76354c-0.31496,0 -0.62992,0 -0.95442,0c0.06299,-0.31496 0.12598,-0.62992 0.19088,-0.95442z" />
        <path fill="#7A7A79"
            d="m32.54535,40.28453c0.40468,0.07254 0.40468,0.07254 0.76354,0.19088c0,0.25197 0,0.50394 0,0.76354c-0.31496,0.06299 -0.62992,0.12598 -0.95442,0.19088c-0.11835,-0.35886 -0.11835,-0.35886 -0.19088,-0.76354c0.12598,-0.12598 0.25197,-0.25197 0.38177,-0.38177z" />
        <path fill="#F7F6F6"
            d="m29.4912,34.74887c0.06299,0.12598 0.12598,0.25197 0.19088,0.38177c0.18134,-0.04009 0.36268,-0.07826 0.54975,-0.11835c0.29396,-0.03627 0.29396,-0.03627 0.59556,-0.07254c0.12598,0.12598 0.25197,0.25197 0.38177,0.38177c-0.14889,0.05536 -0.29969,0.11071 -0.45431,0.16798c-0.51921,0.18516 -0.51921,0.18516 -0.88189,0.59556c-0.27869,-0.50584 -0.38177,-0.74254 -0.38177,-1.33619z" />
        <path fill="#B0ACBF"
            d="m29.68208,-0.37389c0.50394,0 1.00787,0 1.52708,0c0,0.31496 0,0.62992 0,0.95442c-0.18898,0.06299 -0.37795,0.12598 -0.57265,0.19088c-0.05154,-0.11835 -0.10308,-0.2367 -0.15462,-0.35886c-0.21952,-0.46194 -0.21952,-0.46194 -0.79981,-0.78644z" />
        <path fill="#818280"
            d="m36.17216,47.72903c-0.06299,0.25197 -0.12598,0.50394 -0.19088,0.76354c-0.31496,0 -0.62992,0 -0.95442,0c0,-0.25197 0,-0.50394 0,-0.76354c0.4753,-0.23861 0.65092,-0.14889 1.14531,0z" />
        <path fill="#889DC0"
            d="m42.47135,8.02504c0.38177,0.57265 0.38177,0.57265 0.38177,0.95442c0.12598,0 0.25197,0 0.38177,0c0.06299,0.25197 0.12598,0.50394 0.19088,0.76354c-0.37795,0 -0.7559,0 -1.14531,0c0.06299,-0.56693 0.12598,-1.13385 0.19088,-1.71796z" />
        <path fill="#7B8279"
            d="m43.99842,6.30707c-0.06299,0.25197 -0.12598,0.50394 -0.19088,0.76354c-0.25197,0.06299 -0.50394,0.12598 -0.76354,0.19088c-0.06299,-0.31496 -0.12598,-0.62992 -0.19088,-0.95442c0.71582,-0.21379 0.71582,-0.21379 1.14531,0z" />
        <path fill="#6B6C6A"
            d="m34.45419,43.33868c-0.06299,0.25197 -0.12598,0.50394 -0.19088,0.76354c-0.19088,0 -0.38177,0 -0.57265,0c-0.18898,0.09544 -0.18898,0.09544 -0.38177,0.19088c0,-0.31496 0,-0.62992 0,-0.95442c0.4753,-0.23861 0.65092,-0.14889 1.14531,0z" />
        <path fill="#626261"
            d="m32.54535,38.56657c-0.06299,0.25197 -0.12598,0.50394 -0.19088,0.76354c-0.12598,0 -0.25197,0 -0.38177,0c0,-0.18898 0,-0.37795 0,-0.57265c-0.12598,0 -0.25197,0 -0.38177,0c0.06299,0.25197 0.12598,0.50394 0.19088,0.76354c-0.12598,-0.06299 -0.25197,-0.12598 -0.38177,-0.19088c0,-0.25197 0,-0.50394 0,-0.76354c0.4753,-0.23861 0.65092,-0.14889 1.14531,0z" />
        <path fill="#AB956A"
            d="m13.07512,31.31295c0.47721,0.22715 0.47721,0.22715 0.95442,0.57265c0.05917,0.51348 0.05917,0.51348 0,0.95442c-0.12598,0 -0.25197,0 -0.38177,0c0,-0.25197 0,-0.50394 0,-0.76354c-0.12598,0 -0.25197,0 -0.38177,0c-0.06299,0.25197 -0.12598,0.50394 -0.19088,0.76354c0,-0.50394 0,-1.00787 0,-1.52708z" />
        <path fill="#764E0D"
            d="m12.69335,28.2588c0.06299,0 0.12598,0 0.19088,0c0.03436,0.86852 0,1.50417 -0.38177,2.29061c-0.18898,0 -0.37795,0 -0.57265,0c0,-0.25197 0,-0.50394 0,-0.76354c0.18898,-0.12598 0.37795,-0.25197 0.57265,-0.38177c0.13935,-0.58602 0.13935,-0.58602 0.19088,-1.14531z" />
        <path fill="#764E0D"
            d="m10.59362,28.2588c0.06299,0 0.12598,0 0.19088,0c0.05536,0.2157 0.11071,0.43331 0.16798,0.65664c0.07063,0.22333 0.14125,0.44858 0.21379,0.67955c0.12598,0.06299 0.25197,0.12598 0.38177,0.19088c0,0.25197 0,0.50394 0,0.76354c-0.18898,0 -0.37795,0 -0.57265,0c-0.38177,-0.78644 -0.41613,-1.42209 -0.38177,-2.29061z" />
        <path fill="#70766E"
            d="m41.51692,2.2985c0.18898,0.06299 0.37795,0.12598 0.57265,0.19088c0,0.25197 0,0.50394 0,0.76354c-0.18898,0 -0.37795,0 -0.57265,0c-0.18898,0.09544 -0.18898,0.09544 -0.38177,0.19088c-0.06299,-0.25197 -0.12598,-0.50394 -0.19088,-0.76354c0.18898,-0.12598 0.37795,-0.25197 0.57265,-0.38177z" />
        <path fill="#CEDDC7"
            d="m41.32604,2.68027c0.16607,0.08781 0.16607,0.08781 0.33405,0.17943c0.39895,0.18898 0.76354,0.3016 1.19303,0.39322c-0.18134,0.0859 -0.36268,0.1737 -0.54975,0.26342c-0.59556,0.27106 -0.59556,0.27106 -0.97733,0.691c0,-0.18898 0,-0.37795 0,-0.57265c-0.12598,0 -0.25197,0 -0.38177,0c0.06299,-0.12598 0.12598,-0.25197 0.19088,-0.38177c0.06299,-0.18898 0.12598,-0.37795 0.19088,-0.57265z" />
        <path fill="#70766E"
            d="m39.98985,-0.37389c0.39322,0.08399 0.39322,0.08399 0.76354,0.19088c-0.06299,0.25197 -0.12598,0.50394 -0.19088,0.76354c-0.12598,0 -0.25197,0 -0.38177,0c0,-0.12598 0,-0.25197 0,-0.38177c-0.12598,0 -0.25197,0 -0.38177,0c-0.06299,0.12598 -0.12598,0.25197 -0.19088,0.38177c0.16798,-0.74063 0.16798,-0.74063 0.38177,-0.95442z" />
        <path fill="#F9F9F8"
            d="m31.20916,36.27595c0,0.18898 0,0.37795 0,0.57265c-0.18898,0.09544 -0.18898,0.09544 -0.38177,0.19088c0.06299,0.18898 0.12598,0.37795 0.19088,0.57265c-0.12598,0.12598 -0.25197,0.25197 -0.38177,0.38177c-0.12598,-0.44094 -0.25197,-0.88189 -0.38177,-1.33619c0.31496,-0.12598 0.62992,-0.25197 0.95442,-0.38177z" />
        <path fill="#9D9D9C"
            d="m34.26331,46.39283c0.06299,0.12598 0.12598,0.25197 0.19088,0.38177c0.18898,0 0.37795,0 0.57265,0c0,0.12598 0,0.25197 0,0.38177c0.25197,0.06299 0.50394,0.12598 0.76354,0.19088c-0.50394,0.06299 -1.00787,0.12598 -1.52708,0.19088c0,-0.37795 0,-0.7559 0,-1.14531z" />
        <path fill="#774F0F"
            d="m11.35716,28.64057c0.25197,0.06299 0.50394,0.12598 0.76354,0.19088c0,0.25197 0,0.50394 0,0.76354c-0.25197,0 -0.50394,0 -0.76354,0c0,-0.31496 0,-0.62992 0,-0.95442z" />
        <path fill="#9E9E9D"
            d="m32.73623,42.38426c0.44094,0.06299 0.88189,0.12598 1.33619,0.19088c0,0.12598 0,0.25197 0,0.38177c-0.37795,0.06299 -0.7559,0.12598 -1.14531,0.19088c-0.06299,-0.25197 -0.12598,-0.50394 -0.19088,-0.76354z" />
    </g>
</svg>