<svg xmlns="http://www.w3.org/2000/svg" width="48" height="48"><path fill="#ADB7BA" stroke="null" d="M0 0h48.125v48.125H0z"/><path fill="#A4A5A6" stroke="null" d="M37.217 0h10.908v48.125h-3.85l-3.208-2.567v-1.283L38.5 42.992l-1.283-2.567-2.567-.642-2.567-1.925v-2.566l-3.208-.642-5.775-4.492-1.925-1.925-1.283-.641.641-2.567-2.566-.642 1.283-2.566 3.208-6.417 5.134-6.417.641-1.283h1.284v1.283l1.283-.641-1.283-1.925 3.85-2.567z"/><path fill="#65696E" stroke="null" d="m38.5 21.817 3.208 1.283.642 1.283-5.133-.641 1.925 1.925 1.925 3.85-.642 3.85-.642 1.283h1.284v1.925h1.925v-2.567l-1.925-.641 1.925-1.925.641.641v5.134h-1.925l.642 2.566h2.567l1.283 5.775v2.567l-2.567-.642-2.566-1.925v-1.283L38.5 42.992l-1.283-2.567-2.567-.642-2.567-1.925v-2.566l-3.208-.642-5.133-3.85v-1.283h1.283l.642-1.925 3.85-.642.641-1.283v1.283h4.492l.642-1.925h-3.85v-1.283z"/><path fill="#686C6E" stroke="null" d="M13.475 30.8H15.4v1.283l2.567 1.284 6.416 5.133-.641 3.208-3.209 6.417h-15.4l1.925-3.85-2.566 1.283-1.284 1.925H1.925l1.283-2.566 5.134-7.059z"/><path fill="#61686E" stroke="null" d="M23.742 0h9.625l-1.284 2.567-3.208 3.208h-1.283l-.642-.642-.642 2.567-1.283 1.283h-4.492l1.925 2.567-2.566 5.133h-1.284l-.641 3.209-1.925 3.208-2.567-1.283.642-2.567-2.567-7.7 2.567 1.283H15.4l-3.208-1.925-2.567.642v1.283l1.925.642 1.925 4.492-.642 2.566-2.566-1.283-6.417-5.775 1.283-1.283L15.4 7.058l5.775-4.491z"/><path fill="#62666B" stroke="null" d="m37.217 0 1.925.642-1.925.641v3.209l3.208-.642-.642-1.925 2.567.642-1.283 4.491L38.5 8.983h-1.925l3.208 3.209 3.209.641V11.55h1.283l-.642 2.567-2.566 2.566-1.925-.641-.642 2.566-3.208-2.566 1.925 1.925v1.925l-2.567.641v1.925l-3.85-.641-7.7 1.283v-1.283h-1.283l1.283-3.209 1.283-.641.642-1.925 4.492.641 2.566.642V15.4l-3.208-.642 2.567-.641.641-1.284 3.209.642v-1.283l-3.209-3.85 1.925-.642 1.925.642 1.284-2.567-1.284-.642-.641 1.925-.642-1.283V4.492h-1.925z"/><path fill="#898D8F" stroke="null" d="m2.567 21.175 2.566 1.283 1.925 1.925 1.925.642v1.283H6.417v1.284l3.208.641.642 2.567-.642 1.283H8.342v1.284l-2.567-.642.642 2.567-2.567 1.283-1.283 3.208-1.284 3.209L0 43.633V22.458h1.925l1.925 1.284v1.283h1.283l-2.566-2.567z"/><path fill="#818384" stroke="null" d="m34.65 3.85 1.283.642v.641l2.567.642-2.567 2.567h-3.208l3.85 5.133-3.85.642h-1.283l-1.284.641 1.925.642v1.925l-3.85-.642-3.208-.641-.642 2.566H23.1l-1.283 3.209H23.1v1.925l-5.133.641 1.283-2.566 3.208-6.417 5.134-6.417.641-1.283h1.284v1.283l1.283-.641-1.283-1.925z"/><path fill="#A7AAA8" stroke="null" d="M28.233 37.217 30.8 38.5l.642 1.925 2.566.642 1.925 1.925v1.283l1.925.642V46.2h1.925v1.925H22.458l.642-2.567 1.925-1.283h1.925v-1.283l-1.925.641.642-4.491h1.283v-1.284z"/><path fill="#959796" stroke="null" d="M39.142 0h8.983v7.7h-1.283l-.642 3.85h-1.283l-.642 1.925V11.55h-1.283v1.283l-3.209.642-3.208-3.208V8.983L37.858 7.7l3.209-1.283.641-3.85h-1.283V3.85l-3.208.642-.642-1.925z"/><path fill="#B5B6B9" stroke="null" d="m11.55 30.158.642 1.925-1.284 3.209-6.416 8.341-2.567 3.85 3.208-3.208H7.7l-2.567 3.85H0v-4.492l1.925-2.566.642-3.209 1.925-2.566h1.925l-.642-2.567 2.567.642v-1.284h1.283V30.8z"/><path fill="#8F9193" stroke="null" d="M47.483 10.267h.642v15.4h-4.492v6.416l-1.925 1.284 1.284.641v2.567h-1.925V34.65h-1.284l.642-2.567-.642-1.283h1.284L38.5 25.667v-1.284l-1.925.642.642-1.925 3.208.642 3.85 1.283v-2.567l-1.925.642-1.283-.642.641-1.283 2.567-.642 1.283-1.925 1.284.642v-1.925h-1.284l.642-3.85z"/><path fill="#9C9FA1" stroke="null" d="m4.492 16.042 4.491 2.566.642 1.925 3.208 1.925.642 3.85h-1.283l-.642 2.567-5.775-.642.642-1.925-1.284-.641 3.85.641v-1.283l-2.566-.642-2.567-2.566H1.925V19.25l.642-1.925h1.925z"/><path fill="#8A8B8B" stroke="null" d="m13.475 30.8 1.925.642.642 1.925 3.208 2.566v1.284h1.925V38.5l-1.925.642-.642 2.566-1.283.642v1.283l1.925.642-1.925.642-2.567-1.284V38.5h-1.283v1.925h-1.283L11.55 38.5h-1.283l.641-1.925.642-.642v-2.566z"/><path fill="#767978" stroke="null" d="M0 0h14.758l-2.566 1.925-7.7 3.85H3.208v1.283L0 7.7z"/><path fill="#808182" stroke="null" d="m5.775 41.067 1.925.641v1.284h2.567v1.283l-1.925 1.283v1.284l3.85-.642-.642-1.925 1.283-1.283v1.283H15.4V46.2l1.283.642-.641 1.283H5.133l1.925-3.85-2.566 1.283-1.284 1.925H1.925l1.283-2.566z"/><path fill="#4E555D" stroke="null" d="M32.083 26.95h1.925v5.133l-1.925-.641v1.283l5.134.642.641 1.925 1.284.641-1.284 1.925h-2.566l-1.284 1.284-1.283-1.925h1.283l-1.925-3.209-2.566-.641-.642-3.209 2.567-1.283z"/><path fill="#6F7479" stroke="null" d="M23.742 0h9.625l-1.284 2.567-3.208 3.208h-1.283V4.492l-3.85.641V3.208l.641-.641-1.925-1.284z"/><path fill="#687074" stroke="null" d="M1.283 31.442h4.492l-.642 1.283H3.85l1.283 1.283 1.284 1.284-2.567 1.283-1.283 3.208-1.284 3.209L0 43.633V32.725h1.283z"/><path fill="#6D7070" stroke="null" d="m38.5 21.817 3.208 1.283.642 1.283-5.133-.641 1.925 1.925v1.925l-3.85-.642 1.283 7.058-3.208-.641-1.284-.642v-1.283h1.284l1.283-5.775.642-.642h-3.85v-1.283z"/><path fill="#767678" stroke="null" d="M43.633 0h4.492v6.417l-1.925.641v1.284h-1.283l.641 2.566-3.208-1.283-1.283-.642V7.7l2.566-2.567.642-3.208 1.283.642-.641 1.283H46.2V1.925z"/><path fill="#6B6E73" stroke="null" d="m2.567 21.175 2.566 1.283 1.925 1.925 1.925.642v1.283H6.417l-1.284 2.567-3.85-1.283L0 25.667v-3.209h1.925l1.925 1.284v1.283h1.283l-2.566-2.567z"/><path fill="#8B8C8B" stroke="null" d="M28.233 42.35h1.925v5.775h-7.7l.642-2.567 1.925-1.283h1.925v-1.283z"/><path fill="#C6C9CB" stroke="null" d="M11.55 30.158v1.925l-5.133 7.059H5.133l-.641 1.283-1.284-.642 1.284-4.491h1.925l-.642-2.567 2.567.642v-1.284h1.283V30.8z"/><path fill="#979B9D" stroke="null" d="M28.233 9.625h1.925v1.283l-1.925 1.925h3.209v1.284l-1.284.641 1.925.642v1.925l-3.85-.642-3.208-.641-.642 1.925V15.4l2.567-.642-1.925-1.283 1.925-2.567h1.283z"/><path fill="#7E7E7F" stroke="null" d="M47.483 10.267h.642v15.4l-3.208-.642.641-2.567 1.284-2.566v-2.567h-1.284l.642-3.85z"/></svg>