<svg width="48" height="48" xmlns="http://www.w3.org/2000/svg" version="1.1">

 <g>
  <title>Layer 1</title>
  <g id="svg_9">
   <path id="svg_1" fill="#D1D1D1" d="m0,0c15.84,0 31.68,0 48,0c0,15.84 0,31.68 0,48c-15.84,0 -31.68,0 -48,0c0,-15.84 0,-31.68 0,-48z"/>
   <path id="svg_2" fill="#C6C6C6" d="m0,0c4.29,0 8.58,0 13,0c6.29,10.98 6.29,10.98 7,17c-6.6,4.45 -13.28,8.73 -20,13c0,-9.9 0,-19.8 0,-30z"/>
   <path id="svg_3" fill="#F8F8F8" d="m13,0c0.66,0 1.32,0 2,0c4.33,5.37 7.04,12.05 9.81,18.31c0.41,0.9 0.82,1.79 1.23,2.71c2.96,6.6 2.96,6.6 2.96,9.98c-0.66,0 -1.32,0 -2,0c-0.43,-0.8 -0.87,-1.61 -1.31,-2.44c-1.46,-2.8 -1.46,-2.8 -4.38,-3.37c-1.14,-0.1 -1.14,-0.1 -2.31,-0.19c0,1.98 0,3.96 0,6c-1.98,0 -3.96,0 -6,0c0,-0.99 0,-1.98 0,-3c-0.66,0 -1.32,0 -2,0c0,0.99 0,1.98 0,3c-3.63,0.66 -7.26,1.32 -11,2c1.22,-4.86 3.29,-5.99 7.25,-8.56c0.57,-0.39 1.15,-0.77 1.74,-1.17c3.28,-2.19 6.61,-4.27 10.01,-6.27c-1.22,-5.8 -2.96,-9.93 -6,-15c0,-0.66 0,-1.32 0,-2z"/>
   <path id="svg_4" fill="#B6B6B6" d="m0,0c4.29,0 8.58,0 13,0c-1,5 -1,5 -3.31,7.38c-2.69,1.62 -2.69,1.62 -5,1.37c-0.56,-0.25 -1.12,-0.49 -1.69,-0.75c-0.33,-1.65 -0.66,-3.3 -1,-5c-0.66,0 -1.32,0 -2,0c0,-0.99 0,-1.98 0,-3z"/>
   <path id="svg_5" fill="#DFDFDF" d="m13,2c2.97,2.55 4.42,5.45 6,9c0,0.66 0,1.32 0,2c-1.98,0.99 -3.96,1.98 -6,3c-1.32,-2.64 -2.64,-5.28 -4,-8c1.32,-1.98 2.64,-3.96 4,-6z"/>
   <path id="svg_6" fill="#E5E5E5" d="m45,12c0.99,0 1.98,0 3,0c0,4.29 0,8.58 0,13c-2.9,-3.87 -3.85,-6.4 -5,-11c0.66,0 1.32,0 2,0c0,-0.66 0,-1.32 0,-2z"/>
   <path id="svg_7" fill="#EAEAEA" d="m0,3c0.66,0 1.32,0 2,0c1.84,3.78 2.16,5.95 1,10c-0.99,0.33 -1.98,0.66 -3,1c0,-3.63 0,-7.26 0,-11z"/>
   <line stroke="null" id="svg_8" y2="33.31187" x2="7.62518" y1="38.68681" x1="4.62521" fill="none"/>
  </g>
  <line stroke="null" id="svg_10" y2="38.43668" x2="43.68727" y1="2.87464" x1="5.06275" fill="none"/>
  <rect transform="rotate(-69.9967 25.6145 32.5224)" stroke="null" id="svg_11" height="35.48392" width="36.26551" y="14.7804" x="7.48172" fill="#77c328"/>
  <rect transform="rotate(-25.4946 36.0033 54.188)" stroke="null" id="svg_13" height="51.18288" width="52.31026" y="28.59658" x="9.8482" fill="#D1D1D1"/>
 </g>
</svg>